<?xml version="1.0" encoding="utf-8" standalone="no"?>
<!DOCTYPE svg PUBLIC "-//W3C//DTD SVG 1.1//EN"
  "http://www.w3.org/Graphics/SVG/1.1/DTD/svg11.dtd">
<svg xmlns:xlink="http://www.w3.org/1999/xlink" width="1001.525pt" height="568.453375pt" viewBox="0 0 1001.525 568.453375" xmlns="http://www.w3.org/2000/svg" version="1.1">
 <metadata>
  <rdf:RDF xmlns:dc="http://purl.org/dc/elements/1.1/" xmlns:cc="http://creativecommons.org/ns#" xmlns:rdf="http://www.w3.org/1999/02/22-rdf-syntax-ns#">
   <cc:Work>
    <dc:type rdf:resource="http://purl.org/dc/dcmitype/StillImage"/>
    <dc:date>2025-08-08T06:16:51.622977</dc:date>
    <dc:format>image/svg+xml</dc:format>
    <dc:creator>
     <cc:Agent>
      <dc:title>Matplotlib v3.10.3, https://matplotlib.org/</dc:title>
     </cc:Agent>
    </dc:creator>
   </cc:Work>
  </rdf:RDF>
 </metadata>
 <defs>
  <style type="text/css">*{stroke-linejoin: round; stroke-linecap: butt}</style>
 </defs>
 <g id="figure_1">
  <g id="patch_1">
   <path d="M 0 568.453375 
L 1001.525 568.453375 
L 1001.525 0 
L 0 0 
z
" style="fill: #ffffff"/>
  </g>
  <g id="axes_1">
   <g id="patch_2">
    <path d="M 59.575 507.43775 
L 994.325 507.43775 
L 994.325 35.0125 
L 59.575 35.0125 
z
" style="fill: #ffffff"/>
   </g>
   <g id="matplotlib.axis_1">
    <g id="xtick_1">
     <g id="line2d_1">
      <defs>
       <path id="m020898fd2f" d="M 0 0 
L 0 3.5 
" style="stroke: #000000; stroke-width: 0.8"/>
      </defs>
      <g>
       <use xlink:href="#m020898fd2f" x="147.587175" y="507.43775" style="stroke: #000000; stroke-width: 0.8"/>
      </g>
     </g>
     <g id="text_1">
      <!-- 基线 -->
      <g transform="translate(135.587175 524.094) scale(0.12 -0.12)">
       <defs>
        <path id="SimHei-57fa" d="M 1800 4550 
Q 1800 4900 1775 5200 
L 2300 5200 
Q 2275 4875 2275 4550 
L 4075 4550 
Q 4075 4900 4050 5200 
L 4575 5200 
Q 4550 4875 4550 4550 
L 4925 4550 
Q 5200 4550 5625 4575 
L 5625 4175 
Q 5200 4200 4925 4200 
L 4550 4200 
L 4550 2225 
L 5100 2225 
Q 5600 2225 6025 2250 
L 6025 1800 
Q 5625 1850 5125 1850 
L 4500 1850 
Q 4875 1450 5225 1237 
Q 5575 1025 6125 900 
Q 5900 625 5850 350 
Q 5200 650 4737 1037 
Q 4275 1425 4000 1850 
L 2500 1850 
Q 2200 1375 1712 1000 
Q 1225 625 550 350 
Q 475 575 275 825 
Q 700 925 1212 1212 
Q 1725 1500 1950 1850 
L 1300 1850 
Q 850 1850 400 1800 
L 400 2250 
Q 850 2225 1300 2225 
L 1800 2225 
L 1800 4200 
Q 1200 4200 775 4175 
L 775 4575 
Q 1200 4550 1625 4550 
L 1800 4550 
z
M 2950 950 
Q 2950 1200 2925 1575 
L 3475 1575 
Q 3425 1300 3425 950 
L 3900 950 
Q 4250 950 4575 975 
L 4575 500 
Q 4250 550 3875 550 
L 3425 550 
L 3425 -100 
L 4500 -100 
Q 5075 -100 5550 -75 
L 5550 -525 
Q 5075 -500 4500 -500 
L 1800 -500 
Q 1300 -500 850 -525 
L 850 -75 
Q 1275 -100 1800 -100 
L 2950 -100 
L 2950 550 
L 2550 550 
Q 2125 550 1775 525 
L 1775 975 
Q 2125 950 2500 950 
L 2950 950 
z
M 4075 2225 
L 4075 2650 
L 2275 2650 
L 2275 2225 
L 4075 2225 
z
M 4075 3775 
L 4075 4200 
L 2275 4200 
L 2275 3775 
L 4075 3775 
z
M 4075 3025 
L 4075 3375 
L 2275 3375 
L 2275 3025 
L 4075 3025 
z
" transform="scale(0.015625)"/>
        <path id="SimHei-7ebf" d="M 3450 4300 
Q 3450 4675 3375 5125 
Q 3700 5100 4050 5050 
Q 3975 4900 3950 4562 
Q 3925 4225 3950 3600 
L 4800 3750 
Q 5225 3850 5650 3975 
L 5750 3500 
Q 5325 3450 4875 3375 
L 3975 3200 
Q 3975 2800 4025 2500 
L 5000 2675 
Q 5500 2775 5950 2925 
L 6025 2450 
Q 5575 2375 5075 2275 
L 4100 2100 
Q 4150 1600 4350 1175 
Q 4575 1350 4787 1575 
Q 5000 1800 5175 2075 
Q 5550 1775 5750 1675 
Q 5425 1525 5237 1337 
Q 5050 1150 4625 750 
Q 4925 250 5162 112 
Q 5400 -25 5500 100 
Q 5600 225 5675 625 
Q 5900 450 6200 350 
Q 5775 -750 5275 -537 
Q 4775 -325 4225 450 
Q 3875 175 3537 -62 
Q 3200 -300 2700 -550 
Q 2575 -300 2325 -100 
Q 2825 75 3175 275 
Q 3525 475 3975 850 
Q 3750 1350 3650 2025 
Q 2900 1900 2600 1800 
L 2525 2275 
Q 2825 2275 3550 2425 
Q 3500 2825 3500 3100 
Q 2825 2950 2575 2875 
L 2475 3350 
Q 2725 3350 3450 3500 
L 3450 4300 
z
M 1950 4875 
Q 1700 4650 1462 4237 
Q 1225 3825 825 3225 
Q 1425 3250 1650 3250 
Q 1875 3625 2050 4075 
Q 2300 3900 2600 3800 
Q 2350 3550 2087 3125 
Q 1825 2700 1175 1675 
Q 1850 1725 2375 1775 
Q 2300 1525 2300 1350 
Q 2125 1350 1525 1287 
Q 925 1225 550 1125 
Q 525 1375 400 1650 
Q 700 1725 950 2050 
Q 1200 2375 1475 2875 
Q 650 2825 425 2675 
Q 350 2950 200 3225 
Q 525 3450 825 3962 
Q 1125 4475 1375 5150 
Q 1625 4975 1950 4875 
z
M 2575 875 
Q 2550 600 2575 450 
Q 1950 325 1450 200 
Q 950 75 525 -75 
Q 450 200 250 475 
Q 950 550 1325 612 
Q 1700 675 2575 875 
z
M 4850 4025 
Q 4675 4300 4375 4675 
L 4775 4875 
Q 4875 4750 5275 4275 
Q 5025 4175 4850 4025 
z
" transform="scale(0.015625)"/>
       </defs>
       <use xlink:href="#SimHei-57fa"/>
       <use xlink:href="#SimHei-7ebf" transform="translate(100 0)"/>
      </g>
      <!-- (ResNet50+BERT) -->
      <g transform="translate(102.587175 536.11275) scale(0.12 -0.12)">
       <defs>
        <path id="SimHei-28" d="M 2975 -200 
L 2700 -475 
Q 2075 125 1762 775 
Q 1450 1425 1450 2250 
Q 1450 3075 1762 3725 
Q 2075 4375 2700 5000 
L 2975 4725 
Q 2400 4175 2112 3587 
Q 1825 3000 1825 2250 
Q 1825 1500 2112 912 
Q 2400 325 2975 -200 
z
" transform="scale(0.015625)"/>
        <path id="SimHei-52" d="M 3000 125 
L 2400 125 
L 1500 1975 
L 850 1975 
L 850 125 
L 275 125 
L 275 4400 
L 1525 4400 
Q 2125 4400 2500 4112 
Q 2875 3825 2875 3175 
Q 2875 2675 2625 2400 
Q 2375 2125 2050 2050 
L 3000 125 
z
M 2300 3175 
Q 2300 3525 2087 3725 
Q 1875 3925 1400 3925 
L 850 3925 
L 850 2450 
L 1550 2450 
Q 1850 2450 2075 2612 
Q 2300 2775 2300 3175 
z
" transform="scale(0.015625)"/>
        <path id="SimHei-65" d="M 2850 1075 
Q 2800 625 2450 350 
Q 2100 75 1625 75 
Q 1025 75 637 462 
Q 250 850 250 1525 
Q 250 2200 637 2587 
Q 1025 2975 1625 2975 
Q 2150 2975 2487 2637 
Q 2825 2300 2825 1525 
L 800 1525 
Q 800 975 1037 750 
Q 1275 525 1625 525 
Q 1900 525 2075 662 
Q 2250 800 2300 1075 
L 2850 1075 
z
M 2250 1925 
Q 2200 2275 2025 2412 
Q 1850 2550 1575 2550 
Q 1325 2550 1125 2412 
Q 925 2275 825 1925 
L 2250 1925 
z
" transform="scale(0.015625)"/>
        <path id="SimHei-73" d="M 2750 900 
Q 2750 500 2437 287 
Q 2125 75 1650 75 
Q 1050 75 725 312 
Q 400 550 400 1000 
L 900 1000 
Q 900 700 1112 600 
Q 1325 500 1625 500 
Q 1925 500 2075 612 
Q 2225 725 2225 900 
Q 2225 1025 2100 1150 
Q 1975 1275 1475 1350 
Q 900 1425 687 1637 
Q 475 1850 475 2200 
Q 475 2500 762 2737 
Q 1050 2975 1600 2975 
Q 2100 2975 2387 2750 
Q 2675 2525 2675 2150 
L 2175 2150 
Q 2175 2375 2012 2462 
Q 1850 2550 1600 2550 
Q 1275 2550 1137 2437 
Q 1000 2325 1000 2175 
Q 1000 2000 1125 1900 
Q 1250 1800 1650 1750 
Q 2300 1650 2525 1437 
Q 2750 1225 2750 900 
z
" transform="scale(0.015625)"/>
        <path id="SimHei-4e" d="M 2850 125 
L 2225 125 
L 850 3225 
L 825 3225 
L 825 125 
L 250 125 
L 250 4400 
L 875 4400 
L 2250 1300 
L 2275 1300 
L 2275 4400 
L 2850 4400 
L 2850 125 
z
" transform="scale(0.015625)"/>
        <path id="SimHei-74" d="M 2750 200 
Q 2625 150 2462 112 
Q 2300 75 2025 75 
Q 1575 75 1300 325 
Q 1025 575 1025 1025 
L 1025 2525 
L 175 2525 
L 175 2925 
L 1025 2925 
L 1025 3900 
L 1525 3900 
L 1525 2925 
L 2550 2925 
L 2550 2525 
L 1525 2525 
L 1525 1000 
Q 1525 800 1625 662 
Q 1725 525 2000 525 
Q 2275 525 2450 575 
Q 2625 625 2750 700 
L 2750 200 
z
" transform="scale(0.015625)"/>
        <path id="SimHei-35" d="M 550 1325 
Q 725 650 1150 575 
Q 1575 500 1837 662 
Q 2100 825 2212 1087 
Q 2325 1350 2312 1675 
Q 2300 2000 2137 2225 
Q 1975 2450 1725 2525 
Q 1475 2600 1162 2525 
Q 850 2450 650 2175 
L 225 2225 
Q 275 2375 700 4375 
L 2675 4375 
L 2675 3925 
L 1075 3925 
Q 950 3250 825 2850 
Q 1200 3025 1525 3012 
Q 1850 3000 2150 2862 
Q 2450 2725 2587 2487 
Q 2725 2250 2787 2012 
Q 2850 1775 2837 1500 
Q 2825 1225 2725 937 
Q 2625 650 2425 462 
Q 2225 275 1937 162 
Q 1650 50 1275 75 
Q 900 100 562 350 
Q 225 600 100 1200 
L 550 1325 
z
" transform="scale(0.015625)"/>
        <path id="SimHei-30" d="M 225 2537 
Q 250 3200 412 3587 
Q 575 3975 875 4225 
Q 1175 4475 1612 4475 
Q 2050 4475 2375 4112 
Q 2700 3750 2800 3200 
Q 2900 2650 2862 1937 
Q 2825 1225 2612 775 
Q 2400 325 1975 150 
Q 1550 -25 1125 187 
Q 700 400 525 750 
Q 350 1100 275 1487 
Q 200 1875 225 2537 
z
M 750 2687 
Q 675 2000 800 1462 
Q 925 925 1212 700 
Q 1500 475 1800 612 
Q 2100 750 2237 1162 
Q 2375 1575 2375 2062 
Q 2375 2550 2337 2950 
Q 2300 3350 2112 3675 
Q 1925 4000 1612 4012 
Q 1300 4025 1062 3700 
Q 825 3375 750 2687 
z
" transform="scale(0.015625)"/>
        <path id="SimHei-2b" d="M 3000 2125 
L 1775 2125 
L 1775 900 
L 1350 900 
L 1350 2125 
L 125 2125 
L 125 2525 
L 1350 2525 
L 1350 3750 
L 1775 3750 
L 1775 2525 
L 3000 2525 
L 3000 2125 
z
" transform="scale(0.015625)"/>
        <path id="SimHei-42" d="M 2950 1400 
Q 2950 675 2550 400 
Q 2150 125 1525 125 
L 275 125 
L 275 4400 
L 1575 4400 
Q 2200 4400 2512 4075 
Q 2825 3750 2825 3300 
Q 2825 2850 2612 2637 
Q 2400 2425 2175 2350 
Q 2475 2275 2712 2037 
Q 2950 1800 2950 1400 
z
M 2250 3300 
Q 2250 3625 2062 3775 
Q 1875 3925 1600 3925 
L 850 3925 
L 850 2600 
L 1575 2600 
Q 1850 2600 2050 2762 
Q 2250 2925 2250 3300 
z
M 2350 1400 
Q 2350 1800 2087 1962 
Q 1825 2125 1500 2125 
L 850 2125 
L 850 600 
L 1425 600 
Q 1875 600 2112 775 
Q 2350 950 2350 1400 
z
" transform="scale(0.015625)"/>
        <path id="SimHei-45" d="M 2900 125 
L 350 125 
L 350 4400 
L 2775 4400 
L 2775 3925 
L 925 3925 
L 925 2600 
L 2625 2600 
L 2625 2125 
L 925 2125 
L 925 600 
L 2900 600 
L 2900 125 
z
" transform="scale(0.015625)"/>
        <path id="SimHei-54" d="M 2850 3925 
L 1850 3925 
L 1850 125 
L 1275 125 
L 1275 3925 
L 275 3925 
L 275 4400 
L 2850 4400 
L 2850 3925 
z
" transform="scale(0.015625)"/>
        <path id="SimHei-29" d="M 1675 2250 
Q 1675 1425 1362 775 
Q 1050 125 425 -475 
L 150 -200 
Q 725 325 1012 912 
Q 1300 1500 1300 2250 
Q 1300 3000 1012 3587 
Q 725 4175 150 4725 
L 425 5000 
Q 1050 4375 1362 3725 
Q 1675 3075 1675 2250 
z
" transform="scale(0.015625)"/>
       </defs>
       <use xlink:href="#SimHei-28"/>
       <use xlink:href="#SimHei-52" transform="translate(50 0)"/>
       <use xlink:href="#SimHei-65" transform="translate(100 0)"/>
       <use xlink:href="#SimHei-73" transform="translate(150 0)"/>
       <use xlink:href="#SimHei-4e" transform="translate(200 0)"/>
       <use xlink:href="#SimHei-65" transform="translate(250 0)"/>
       <use xlink:href="#SimHei-74" transform="translate(300 0)"/>
       <use xlink:href="#SimHei-35" transform="translate(350 0)"/>
       <use xlink:href="#SimHei-30" transform="translate(400 0)"/>
       <use xlink:href="#SimHei-2b" transform="translate(450 0)"/>
       <use xlink:href="#SimHei-42" transform="translate(500 0)"/>
       <use xlink:href="#SimHei-45" transform="translate(550 0)"/>
       <use xlink:href="#SimHei-52" transform="translate(600 0)"/>
       <use xlink:href="#SimHei-54" transform="translate(650 0)"/>
       <use xlink:href="#SimHei-29" transform="translate(700 0)"/>
      </g>
     </g>
    </g>
    <g id="xtick_2">
     <g id="line2d_2">
      <g>
       <use xlink:href="#m020898fd2f" x="299.332305" y="507.43775" style="stroke: #000000; stroke-width: 0.8"/>
      </g>
     </g>
     <g id="text_2">
      <!-- + ResNet101 -->
      <g transform="translate(266.332305 522.68775) scale(0.12 -0.12)">
       <defs>
        <path id="SimHei-20" transform="scale(0.015625)"/>
        <path id="SimHei-31" d="M 1400 3600 
Q 1075 3275 575 2975 
L 575 3450 
Q 1200 3875 1600 4450 
L 1900 4450 
L 1900 150 
L 1400 150 
L 1400 3600 
z
" transform="scale(0.015625)"/>
       </defs>
       <use xlink:href="#SimHei-2b"/>
       <use xlink:href="#SimHei-20" transform="translate(50 0)"/>
       <use xlink:href="#SimHei-52" transform="translate(100 0)"/>
       <use xlink:href="#SimHei-65" transform="translate(150 0)"/>
       <use xlink:href="#SimHei-73" transform="translate(200 0)"/>
       <use xlink:href="#SimHei-4e" transform="translate(250 0)"/>
       <use xlink:href="#SimHei-65" transform="translate(300 0)"/>
       <use xlink:href="#SimHei-74" transform="translate(350 0)"/>
       <use xlink:href="#SimHei-31" transform="translate(400 0)"/>
       <use xlink:href="#SimHei-30" transform="translate(450 0)"/>
       <use xlink:href="#SimHei-31" transform="translate(500 0)"/>
      </g>
     </g>
    </g>
    <g id="xtick_3">
     <g id="line2d_3">
      <g>
       <use xlink:href="#m020898fd2f" x="451.077435" y="507.43775" style="stroke: #000000; stroke-width: 0.8"/>
      </g>
     </g>
     <g id="text_3">
      <!-- + Mean_Max -->
      <g transform="translate(421.077435 522.68775) scale(0.12 -0.12)">
       <defs>
        <path id="SimHei-4d" d="M 2925 125 
L 2425 125 
L 2425 3175 
L 2375 3175 
L 1775 125 
L 1375 125 
L 775 3175 
L 725 3175 
L 725 125 
L 225 125 
L 225 4400 
L 1000 4400 
L 1550 1575 
L 1600 1575 
L 2150 4400 
L 2925 4400 
L 2925 125 
z
" transform="scale(0.015625)"/>
        <path id="SimHei-61" d="M 2875 125 
L 2275 125 
Q 2225 175 2200 262 
Q 2175 350 2175 475 
Q 2000 275 1750 175 
Q 1500 75 1225 75 
Q 825 75 550 275 
Q 275 475 275 850 
Q 275 1225 525 1450 
Q 775 1675 1300 1750 
Q 1650 1800 1912 1875 
Q 2175 1950 2175 2075 
Q 2175 2225 2062 2375 
Q 1950 2525 1575 2525 
Q 1275 2525 1137 2412 
Q 1000 2300 950 2100 
L 400 2100 
Q 450 2500 762 2737 
Q 1075 2975 1575 2975 
Q 2125 2975 2400 2725 
Q 2675 2475 2675 2025 
L 2675 650 
Q 2675 500 2725 375 
Q 2775 250 2875 125 
z
M 2175 1050 
L 2175 1550 
Q 2025 1500 1887 1462 
Q 1750 1425 1425 1375 
Q 1050 1325 937 1200 
Q 825 1075 825 900 
Q 825 750 937 637 
Q 1050 525 1275 525 
Q 1500 525 1762 650 
Q 2025 775 2175 1050 
z
" transform="scale(0.015625)"/>
        <path id="SimHei-6e" d="M 2800 125 
L 2300 125 
L 2300 1925 
Q 2300 2225 2150 2400 
Q 2000 2575 1750 2575 
Q 1425 2575 1137 2237 
Q 850 1900 850 1400 
L 850 125 
L 350 125 
L 350 2925 
L 850 2925 
L 850 2400 
Q 1050 2675 1287 2825 
Q 1525 2975 1900 2975 
Q 2350 2975 2575 2725 
Q 2800 2475 2800 2100 
L 2800 125 
z
" transform="scale(0.015625)"/>
        <path id="SimHei-5f" d="M 3150 -850 
L 0 -850 
L 0 -550 
L 3150 -550 
L 3150 -850 
z
" transform="scale(0.015625)"/>
        <path id="SimHei-78" d="M 2875 125 
L 2275 125 
L 1550 1200 
L 825 125 
L 225 125 
L 1250 1550 
L 300 2925 
L 900 2925 
L 1550 1875 
L 2200 2925 
L 2800 2925 
L 1850 1550 
L 2875 125 
z
" transform="scale(0.015625)"/>
       </defs>
       <use xlink:href="#SimHei-2b"/>
       <use xlink:href="#SimHei-20" transform="translate(50 0)"/>
       <use xlink:href="#SimHei-4d" transform="translate(100 0)"/>
       <use xlink:href="#SimHei-65" transform="translate(150 0)"/>
       <use xlink:href="#SimHei-61" transform="translate(200 0)"/>
       <use xlink:href="#SimHei-6e" transform="translate(250 0)"/>
       <use xlink:href="#SimHei-5f" transform="translate(300 0)"/>
       <use xlink:href="#SimHei-4d" transform="translate(350 0)"/>
       <use xlink:href="#SimHei-61" transform="translate(400 0)"/>
       <use xlink:href="#SimHei-78" transform="translate(450 0)"/>
      </g>
      <!-- 池化 -->
      <g transform="translate(439.077435 535.194) scale(0.12 -0.12)">
       <defs>
        <path id="SimHei-6c60" d="M 2525 3425 
Q 2525 3850 2500 4250 
L 3025 4250 
Q 3000 3750 3000 3450 
L 3000 2975 
L 3800 3225 
L 3800 4250 
Q 3800 4675 3775 5075 
L 4275 5075 
Q 4250 4725 4250 4225 
L 4250 3375 
L 5700 3850 
L 5575 1750 
Q 5550 1350 5375 1237 
Q 5200 1125 4725 1025 
Q 4675 1275 4475 1550 
Q 4850 1575 4975 1625 
Q 5100 1675 5125 2025 
L 5175 3200 
L 4250 2925 
L 4250 1425 
Q 4250 1125 4275 600 
L 3775 600 
Q 3800 1075 3800 1425 
L 3800 2775 
L 3000 2525 
L 3000 400 
Q 3000 -25 3450 25 
L 5125 25 
Q 5375 25 5462 175 
Q 5550 325 5625 850 
Q 5850 675 6175 575 
Q 6050 25 5900 -200 
Q 5750 -425 5225 -425 
L 3200 -425 
Q 2500 -425 2525 325 
L 2525 2350 
L 1975 2150 
L 1850 2625 
L 2525 2825 
L 2525 3425 
z
M 1825 1525 
Q 1675 1300 1375 600 
Q 1075 -100 875 -525 
Q 550 -350 300 -225 
Q 550 75 875 750 
Q 1200 1425 1300 1800 
Q 1525 1650 1825 1525 
z
M 550 3400 
Q 1000 3175 1600 2775 
Q 1425 2575 1275 2300 
Q 825 2675 250 2975 
Q 400 3175 550 3400 
z
M 1050 4950 
Q 1500 4625 2000 4200 
Q 1800 4000 1625 3775 
Q 1200 4200 725 4575 
Q 875 4750 1050 4950 
z
" transform="scale(0.015625)"/>
        <path id="SimHei-5316" d="M 3925 5025 
Q 3900 4900 3900 4400 
L 3900 2625 
Q 4375 3025 4775 3450 
Q 5175 3875 5400 4300 
Q 5600 4100 5900 3925 
Q 5700 3700 5225 3212 
Q 4750 2725 4487 2512 
Q 4225 2300 3900 2025 
L 3900 450 
Q 3900 50 4225 50 
L 5200 50 
Q 5400 75 5462 262 
Q 5525 450 5575 850 
Q 5800 650 6150 600 
Q 6000 -100 5825 -250 
Q 5650 -400 5350 -400 
L 3950 -400 
Q 3425 -400 3400 200 
L 3400 1675 
Q 3225 1525 2962 1350 
Q 2700 1175 2375 975 
Q 2225 1225 2025 1400 
Q 2350 1550 2737 1787 
Q 3125 2025 3400 2250 
L 3400 4500 
Q 3400 4800 3375 5025 
L 3925 5025 
z
M 2400 4850 
Q 2175 4550 2075 4337 
Q 1975 4125 1825 3775 
L 1825 675 
Q 1825 -75 1850 -550 
L 1325 -550 
Q 1350 -125 1350 650 
L 1350 3050 
Q 1125 2725 962 2525 
Q 800 2325 675 2175 
Q 500 2375 275 2525 
Q 625 2850 875 3212 
Q 1125 3575 1312 3912 
Q 1500 4250 1625 4575 
Q 1750 4900 1825 5100 
Q 1975 4975 2400 4850 
z
" transform="scale(0.015625)"/>
       </defs>
       <use xlink:href="#SimHei-6c60"/>
       <use xlink:href="#SimHei-5316" transform="translate(100 0)"/>
      </g>
     </g>
    </g>
    <g id="xtick_4">
     <g id="line2d_4">
      <g>
       <use xlink:href="#m020898fd2f" x="602.822565" y="507.43775" style="stroke: #000000; stroke-width: 0.8"/>
      </g>
     </g>
     <g id="text_4">
      <!-- + 困难负样本 -->
      <g transform="translate(566.822565 524.094) scale(0.12 -0.12)">
       <defs>
        <path id="SimHei-56f0" d="M 5800 4975 
Q 5775 4325 5775 3600 
L 5775 825 
Q 5775 150 5800 -575 
L 5275 -575 
L 5275 -100 
L 1150 -100 
L 1150 -575 
L 625 -575 
Q 650 50 650 825 
L 650 3600 
Q 650 4275 625 4975 
L 5800 4975 
z
M 5275 325 
L 5275 4575 
L 1150 4575 
L 1150 325 
L 5275 325 
z
M 2975 3450 
Q 2975 3975 2950 4275 
L 3475 4275 
Q 3450 4100 3450 3450 
L 4050 3450 
Q 4450 3450 4825 3475 
L 4825 3025 
Q 4450 3050 4050 3050 
L 3450 3050 
L 3450 1450 
Q 3450 975 3475 500 
L 2950 500 
Q 2975 975 2975 1450 
L 2975 2450 
Q 2750 2050 2500 1725 
Q 2250 1400 1825 925 
Q 1650 1125 1400 1275 
Q 1725 1500 2112 1962 
Q 2500 2425 2775 3050 
L 2525 3050 
Q 2125 3050 1575 3025 
L 1575 3475 
Q 2125 3450 2525 3450 
L 2975 3450 
z
M 3900 2650 
Q 4500 2025 4950 1525 
Q 4700 1350 4525 1175 
Q 4300 1500 4050 1800 
Q 3800 2100 3550 2325 
Q 3750 2475 3900 2650 
z
" transform="scale(0.015625)"/>
        <path id="SimHei-96be" d="M 5775 1100 
Q 5425 1125 5000 1125 
L 4825 1125 
L 4825 200 
L 5200 200 
Q 5725 200 6075 225 
L 6075 -200 
Q 5750 -175 5200 -175 
L 3425 -175 
L 3425 -675 
L 3000 -675 
Q 3025 -300 3025 600 
L 3025 3125 
Q 2925 2925 2850 2750 
Q 2775 2575 2650 2350 
Q 2500 2500 2200 2600 
Q 2425 2925 2600 3287 
Q 2775 3650 2900 3950 
Q 3025 4250 3112 4550 
Q 3200 4850 3225 5100 
Q 3525 5000 3775 4925 
Q 3700 4825 3600 4587 
Q 3500 4350 3375 4000 
L 5075 4000 
Q 5525 4000 5925 4025 
L 5925 3600 
Q 5700 3625 5100 3625 
L 4825 3625 
L 4825 2800 
L 5025 2800 
Q 5425 2800 5750 2825 
L 5750 2375 
Q 5475 2400 5025 2400 
L 4825 2400 
L 4825 1500 
L 5000 1500 
Q 5450 1500 5775 1525 
L 5775 1100 
z
M 1675 1350 
Q 1450 975 1175 575 
Q 900 175 575 -200 
Q 450 50 250 200 
Q 600 550 850 887 
Q 1100 1225 1350 1750 
Q 1150 2125 962 2425 
Q 775 2725 500 3025 
Q 700 3150 850 3300 
Q 1025 3100 1187 2850 
Q 1350 2600 1550 2300 
Q 1675 2625 1750 3075 
Q 1825 3525 1875 4075 
L 1200 4075 
Q 775 4075 525 4050 
L 525 4525 
Q 775 4500 1175 4500 
L 2375 4500 
Q 2350 4175 2312 3887 
Q 2275 3600 2187 3087 
Q 2100 2575 2012 2300 
Q 1925 2025 1875 1850 
Q 2000 1675 2225 1337 
Q 2450 1000 2675 650 
Q 2475 550 2275 350 
Q 2125 650 1950 937 
Q 1775 1225 1675 1350 
z
M 4350 200 
L 4350 1125 
L 3425 1125 
L 3425 200 
L 4350 200 
z
M 4350 1500 
L 4350 2400 
L 3425 2400 
L 3425 1500 
L 4350 1500 
z
M 4350 2800 
L 4350 3625 
L 3425 3625 
L 3425 2800 
L 4350 2800 
z
M 4675 4200 
Q 4525 4475 4375 4662 
Q 4225 4850 4150 4950 
Q 4325 5075 4475 5225 
Q 4675 5000 4825 4850 
Q 4975 4700 5075 4550 
Q 4850 4375 4675 4200 
z
" transform="scale(0.015625)"/>
        <path id="SimHei-8d1f" d="M 2900 5000 
Q 2575 4600 2500 4475 
L 4800 4475 
Q 4200 3500 4025 3200 
L 5450 3200 
Q 5425 2850 5425 1975 
Q 5425 1100 5450 725 
L 4925 725 
L 4925 2800 
L 1825 2800 
L 1825 650 
L 1300 650 
Q 1325 1050 1325 1925 
Q 1325 2800 1300 3150 
Q 950 2900 750 2725 
Q 525 2975 300 3125 
Q 625 3275 1062 3612 
Q 1500 3950 1875 4462 
Q 2250 4975 2375 5250 
Q 2625 5075 2900 5000 
z
M 3650 2150 
Q 3575 1900 3450 1337 
Q 3325 775 3050 412 
Q 2775 50 2162 -225 
Q 1550 -500 675 -675 
Q 600 -425 400 -175 
Q 1000 -125 1575 50 
Q 2150 225 2475 500 
Q 2800 775 2925 1187 
Q 3050 1600 3050 2225 
Q 3375 2175 3650 2150 
z
M 2225 4075 
Q 1800 3600 1350 3200 
L 3475 3200 
Q 3800 3725 4000 4075 
L 2225 4075 
z
M 3875 750 
Q 4350 525 4850 300 
Q 5350 75 5925 -225 
Q 5775 -425 5650 -700 
Q 5100 -400 4612 -150 
Q 4125 100 3650 300 
Q 3850 600 3875 750 
z
" transform="scale(0.015625)"/>
        <path id="SimHei-6837" d="M 4350 4025 
Q 4600 4575 4850 5225 
Q 5250 5075 5375 5000 
Q 5150 4725 4850 4025 
L 4950 4025 
Q 5650 4050 5950 4050 
L 5950 3600 
Q 5675 3625 5175 3625 
L 4550 3625 
L 4550 2650 
L 4950 2650 
Q 5525 2675 5800 2675 
L 5800 2225 
Q 5475 2250 5025 2250 
L 4550 2250 
L 4550 1225 
L 5325 1225 
Q 5800 1250 6100 1250 
L 6100 800 
Q 5825 825 5325 825 
L 4550 825 
L 4550 275 
Q 4550 -250 4575 -600 
L 4075 -600 
L 4075 825 
L 3475 825 
Q 3000 825 2550 800 
L 2550 1275 
Q 3000 1250 3500 1225 
L 4075 1225 
L 4075 2250 
L 3650 2250 
Q 3225 2250 2900 2225 
L 2900 2700 
Q 3200 2675 3675 2650 
L 4075 2650 
L 4075 3625 
L 3475 3625 
Q 3050 3625 2750 3600 
L 2750 4075 
Q 3050 4050 3475 4025 
L 4350 4025 
z
M 1325 4350 
Q 1325 4775 1300 5125 
L 1825 5125 
Q 1800 4725 1800 4350 
L 1800 3750 
Q 2125 3750 2475 3775 
L 2475 3325 
Q 2125 3350 1800 3350 
L 1800 2425 
Q 2000 2600 2100 2675 
Q 2375 2325 2725 1775 
Q 2575 1700 2300 1475 
Q 2025 1975 1800 2350 
L 1800 475 
Q 1800 -50 1825 -575 
L 1300 -575 
Q 1325 -25 1325 475 
L 1325 2250 
Q 925 1300 525 725 
Q 425 950 225 1175 
Q 950 2150 1225 3350 
Q 825 3350 350 3325 
L 350 3775 
Q 825 3750 1325 3750 
L 1325 4350 
z
M 3575 5200 
Q 3800 4775 3950 4350 
Q 3650 4250 3525 4175 
Q 3350 4600 3150 5000 
Q 3425 5125 3575 5200 
z
" transform="scale(0.015625)"/>
        <path id="SimHei-672c" d="M 2950 3925 
L 2950 4425 
Q 2950 4825 2925 5175 
L 3475 5175 
Q 3450 4900 3450 4450 
L 3450 3925 
L 4850 3925 
Q 5275 3925 5850 3950 
L 5850 3475 
Q 5300 3500 4875 3500 
L 3850 3500 
Q 4200 2350 4862 1687 
Q 5525 1025 6075 800 
Q 5850 625 5650 325 
Q 4800 900 4262 1637 
Q 3725 2375 3450 3350 
L 3450 1000 
L 3775 1000 
Q 4175 1000 4600 1025 
L 4600 550 
Q 4175 575 3750 575 
L 3450 575 
Q 3450 0 3475 -600 
L 2925 -600 
Q 2950 0 2950 575 
L 2625 575 
Q 2225 575 1825 550 
L 1825 1025 
Q 2225 1000 2625 1000 
L 2950 1000 
L 2950 3300 
Q 2550 2275 2062 1575 
Q 1575 875 750 175 
Q 550 450 275 575 
Q 1100 1075 1650 1825 
Q 2200 2575 2525 3500 
L 1425 3500 
Q 1025 3500 575 3475 
L 575 3950 
Q 1025 3925 1400 3925 
L 2950 3925 
z
" transform="scale(0.015625)"/>
       </defs>
       <use xlink:href="#SimHei-2b"/>
       <use xlink:href="#SimHei-20" transform="translate(50 0)"/>
       <use xlink:href="#SimHei-56f0" transform="translate(100 0)"/>
       <use xlink:href="#SimHei-96be" transform="translate(200 0)"/>
       <use xlink:href="#SimHei-8d1f" transform="translate(300 0)"/>
       <use xlink:href="#SimHei-6837" transform="translate(400 0)"/>
       <use xlink:href="#SimHei-672c" transform="translate(500 0)"/>
      </g>
      <!-- 挖掘 -->
      <g transform="translate(590.822565 536.9565) scale(0.12 -0.12)">
       <defs>
        <path id="SimHei-6316" d="M 1125 3875 
Q 1125 4850 1100 5175 
L 1600 5175 
Q 1575 4925 1575 3875 
Q 1850 3875 2200 3900 
L 2200 3425 
Q 1850 3450 1575 3450 
L 1575 2425 
Q 1825 2550 2075 2725 
Q 2125 2450 2175 2250 
Q 1875 2125 1575 1975 
L 1575 -25 
Q 1550 -300 1350 -400 
Q 1150 -500 675 -550 
Q 650 -300 475 -50 
Q 850 -50 975 -37 
Q 1100 -25 1125 175 
L 1125 1775 
Q 675 1525 500 1400 
Q 425 1650 250 1925 
Q 550 2000 1125 2250 
L 1125 3450 
Q 650 3450 275 3425 
L 275 3900 
Q 625 3875 1125 3875 
z
M 5450 2275 
L 5450 1825 
Q 5150 1725 4700 1387 
Q 4250 1050 3775 637 
Q 3300 225 3375 62 
Q 3450 -100 3650 -100 
L 5050 -100 
Q 5300 -100 5412 12 
Q 5525 125 5550 600 
Q 5825 400 6125 350 
Q 5950 -250 5775 -375 
Q 5600 -500 5150 -500 
L 3375 -500 
Q 3125 -500 2950 -350 
Q 2775 -200 2762 62 
Q 2750 325 3325 837 
Q 3900 1350 4600 1875 
L 3200 1875 
Q 2900 1875 2600 1850 
L 2600 2300 
Q 2875 2275 3200 2275 
L 5450 2275 
z
M 4375 5250 
Q 4425 5000 4500 4575 
L 6050 4575 
Q 6025 4350 6037 4062 
Q 6050 3775 6050 3500 
L 5550 3500 
L 5550 4175 
L 2850 4175 
L 2850 3450 
L 2350 3450 
Q 2375 3700 2375 4000 
Q 2375 4300 2350 4575 
L 3975 4575 
Q 3925 4900 3825 5175 
Q 4100 5200 4375 5250 
z
M 4700 3750 
Q 5450 3250 5850 2950 
Q 5650 2775 5500 2525 
Q 5275 2800 4350 3400 
Q 4550 3550 4700 3750 
z
M 3900 3500 
Q 3675 3275 3475 3050 
Q 3275 2825 2975 2425 
Q 2800 2600 2525 2725 
Q 3050 3200 3425 3825 
Q 3625 3625 3900 3500 
z
" transform="scale(0.015625)"/>
        <path id="SimHei-6398" d="M 5850 5000 
Q 5825 4850 5800 4450 
L 5800 3925 
Q 5800 3725 5825 3525 
L 3000 3525 
Q 3000 2800 2962 2175 
Q 2925 1550 2737 750 
Q 2550 -50 2200 -600 
Q 1975 -425 1700 -275 
Q 2200 350 2375 1262 
Q 2550 2175 2550 2900 
L 2550 4150 
Q 2550 4700 2500 5000 
L 5850 5000 
z
M 5925 50 
Q 5925 -325 5975 -550 
L 5450 -550 
L 5450 -350 
L 3150 -350 
Q 3175 25 3175 375 
Q 3175 725 3150 1275 
L 3650 1275 
Q 3625 1050 3625 575 
L 3625 75 
L 4325 75 
L 4325 1625 
L 3300 1625 
L 3300 2350 
Q 3300 2750 3275 3000 
L 3750 3000 
Q 3725 2725 3725 2525 
L 3725 2025 
L 4325 2025 
L 4325 2725 
Q 4325 2900 4300 3225 
L 4800 3225 
Q 4775 3100 4750 2700 
L 4750 2025 
L 5325 2025 
Q 5325 2350 5312 2562 
Q 5300 2775 5275 2950 
L 5800 2950 
Q 5775 2625 5775 2275 
Q 5775 1925 5800 1625 
L 4750 1625 
L 4750 75 
L 5450 75 
L 5450 425 
Q 5450 1000 5425 1250 
L 5975 1250 
Q 5925 1075 5925 600 
L 5925 50 
z
M 2225 2200 
Q 1725 2025 1550 1950 
L 1550 150 
Q 1500 -150 1337 -262 
Q 1175 -375 625 -475 
Q 625 -200 475 100 
Q 900 75 1012 125 
Q 1125 175 1125 425 
L 1125 1800 
Q 850 1725 450 1500 
Q 325 1900 250 2075 
Q 900 2175 1125 2275 
L 1125 3425 
L 975 3425 
Q 625 3425 400 3400 
L 400 3875 
Q 625 3850 975 3850 
L 1125 3850 
L 1125 4575 
Q 1125 4925 1100 5225 
L 1600 5225 
Q 1550 4950 1550 4575 
L 1550 3850 
Q 1875 3850 2175 3875 
L 2175 3400 
Q 1825 3425 1550 3425 
L 1550 2400 
Q 1900 2500 2175 2625 
Q 2200 2300 2225 2200 
z
M 5350 3950 
L 5350 4600 
L 3000 4600 
L 3000 3950 
L 5350 3950 
z
" transform="scale(0.015625)"/>
       </defs>
       <use xlink:href="#SimHei-6316"/>
       <use xlink:href="#SimHei-6398" transform="translate(100 0)"/>
      </g>
     </g>
    </g>
    <g id="xtick_5">
     <g id="line2d_5">
      <g>
       <use xlink:href="#m020898fd2f" x="754.567695" y="507.43775" style="stroke: #000000; stroke-width: 0.8"/>
      </g>
     </g>
     <g id="text_5">
      <!-- + 渐进式 -->
      <g transform="translate(730.567695 523.859625) scale(0.12 -0.12)">
       <defs>
        <path id="SimHei-6e10" d="M 2250 4250 
Q 2450 4900 2475 5225 
Q 2700 5125 3000 5050 
Q 2875 4850 2700 4250 
L 3075 4250 
Q 3450 4250 3825 4275 
L 3825 3825 
Q 3450 3850 3075 3850 
L 2575 3850 
Q 2450 3475 2050 2575 
L 2650 2575 
Q 2650 3025 2625 3400 
L 3100 3400 
Q 3075 3050 3075 2575 
L 3800 2600 
L 3800 2150 
L 3075 2175 
L 3075 1375 
Q 3475 1475 3725 1575 
Q 3725 1350 3775 1125 
Q 3450 1050 3075 925 
L 3075 175 
Q 3075 -75 3100 -575 
L 2625 -575 
Q 2650 -100 2650 350 
L 2650 825 
Q 2375 750 2125 687 
Q 1875 625 1600 500 
Q 1550 750 1425 1025 
Q 1825 1075 2650 1275 
L 2650 2175 
Q 2325 2175 2125 2162 
Q 1925 2150 1650 2100 
Q 1600 2300 1475 2550 
Q 1625 2625 1787 2975 
Q 1950 3325 2125 3850 
Q 2025 3850 1650 3825 
L 1650 4275 
Q 2025 4250 2250 4250 
z
M 6025 4425 
Q 5750 4375 4475 4275 
L 4475 3025 
L 5550 3025 
Q 5700 3025 6100 3050 
L 6100 2600 
Q 5700 2625 5525 2625 
L 5525 350 
Q 5525 -125 5550 -600 
L 5075 -600 
Q 5100 0 5100 350 
L 5100 2625 
L 4475 2625 
Q 4475 2000 4437 1512 
Q 4400 1025 4250 487 
Q 4100 -50 3775 -575 
Q 3625 -425 3375 -275 
Q 3575 0 3737 387 
Q 3900 775 3962 1175 
Q 4025 1575 4037 2137 
Q 4050 2700 4050 3550 
Q 4050 4400 4025 4625 
Q 4400 4625 4900 4700 
Q 5400 4775 5750 4925 
Q 5875 4650 6025 4425 
z
M 1600 1700 
Q 1450 1375 1237 800 
Q 1025 225 725 -400 
Q 475 -250 250 -125 
Q 500 300 750 875 
Q 1000 1450 1175 2075 
Q 1375 1850 1600 1700 
z
M 775 5150 
Q 1075 4925 1262 4775 
Q 1450 4625 1625 4475 
Q 1475 4275 1300 4075 
Q 950 4450 475 4800 
Q 600 4925 775 5150 
z
M 525 3650 
Q 1175 3175 1425 2975 
Q 1250 2800 1075 2600 
Q 725 2975 250 3275 
Q 375 3400 525 3650 
z
" transform="scale(0.015625)"/>
        <path id="SimHei-8fdb" d="M 4400 4100 
Q 4400 4600 4375 5200 
L 4900 5200 
Q 4875 4900 4875 4100 
Q 5400 4100 5900 4125 
L 5900 3650 
Q 5400 3675 4875 3675 
L 4875 2575 
Q 5475 2575 6025 2600 
L 6025 2125 
Q 5475 2150 4875 2150 
L 4875 1125 
Q 4875 700 4900 250 
L 4375 250 
Q 4375 700 4400 1125 
L 4400 2150 
L 3450 2150 
Q 3350 1475 3162 1050 
Q 2975 625 2600 200 
Q 2350 400 2125 525 
Q 2600 950 2750 1312 
Q 2900 1675 2975 2150 
Q 2400 2150 1975 2125 
L 1975 2600 
Q 2425 2575 3025 2575 
Q 3075 3150 3075 3675 
Q 2575 3675 2100 3625 
L 2100 4125 
Q 2575 4100 3100 4100 
Q 3100 4675 3075 5200 
Q 3325 5175 3600 5150 
Q 3575 4825 3550 4100 
L 4400 4100 
z
M 1600 3125 
Q 1550 2575 1550 2200 
L 1550 625 
Q 2275 125 3100 37 
Q 3925 -50 4712 -25 
Q 5500 0 6125 100 
Q 6000 -200 5975 -525 
Q 4775 -525 4012 -500 
Q 3250 -475 2612 -312 
Q 1975 -150 1650 37 
Q 1325 225 1087 37 
Q 850 -150 575 -450 
Q 425 -225 200 -50 
Q 800 400 1075 575 
L 1075 2700 
Q 800 2700 375 2650 
L 375 3150 
Q 875 3125 1125 3125 
L 1600 3125 
z
M 4400 2575 
L 4400 3675 
L 3550 3675 
Q 3525 3150 3475 2575 
L 4400 2575 
z
M 1200 5050 
Q 1600 4250 1700 3925 
Q 1425 3875 1200 3725 
Q 1125 4175 700 4850 
L 1200 5050 
z
" transform="scale(0.015625)"/>
        <path id="SimHei-5f0f" d="M 3300 3900 
Q 3250 4775 3225 5225 
Q 3375 5200 3875 5175 
Q 3825 5000 3850 3900 
L 4850 3900 
Q 5325 3900 5825 3925 
L 5825 3425 
Q 5375 3450 4875 3450 
L 3875 3450 
Q 3950 2800 4087 2237 
Q 4225 1675 4450 1175 
Q 4675 675 5037 287 
Q 5400 -100 5475 250 
Q 5550 600 5525 950 
Q 5750 775 6150 625 
Q 5975 -450 5637 -525 
Q 5300 -600 4962 -362 
Q 4625 -125 4325 325 
Q 4025 775 3837 1312 
Q 3650 1850 3525 2425 
Q 3400 3000 3350 3450 
L 1525 3450 
Q 800 3450 350 3425 
L 350 3925 
Q 825 3900 1500 3900 
L 3300 3900 
z
M 2250 2575 
Q 2725 2575 3150 2600 
L 3150 2125 
Q 2700 2150 2200 2150 
L 2200 575 
Q 2725 700 3400 875 
L 3400 425 
Q 2500 250 1975 87 
Q 1450 -75 700 -375 
L 450 225 
Q 750 250 1700 450 
L 1700 2150 
Q 975 2150 700 2125 
L 700 2600 
Q 975 2575 1475 2575 
L 2250 2575 
z
M 4700 5075 
Q 5175 4550 5375 4300 
Q 5250 4250 4900 4000 
Q 4725 4300 4275 4750 
Q 4400 4850 4700 5075 
z
" transform="scale(0.015625)"/>
       </defs>
       <use xlink:href="#SimHei-2b"/>
       <use xlink:href="#SimHei-20" transform="translate(50 0)"/>
       <use xlink:href="#SimHei-6e10" transform="translate(100 0)"/>
       <use xlink:href="#SimHei-8fdb" transform="translate(200 0)"/>
       <use xlink:href="#SimHei-5f0f" transform="translate(300 0)"/>
      </g>
      <!-- 解冻 -->
      <g transform="translate(742.567695 536.947125) scale(0.12 -0.12)">
       <defs>
        <path id="SimHei-89e3" d="M 1925 5025 
Q 1725 4925 1625 4575 
L 2925 4575 
Q 2800 4400 2600 4100 
Q 2400 3800 2325 3650 
L 3225 3650 
Q 3175 3150 3175 2650 
L 3175 75 
Q 3175 -225 3012 -312 
Q 2850 -400 2500 -450 
Q 2450 -175 2350 75 
Q 2550 75 2650 87 
Q 2750 100 2750 325 
L 2750 1150 
L 2225 1150 
L 2225 -25 
L 1800 -25 
L 1800 1150 
L 1275 1150 
Q 1250 775 1150 375 
Q 1050 -25 825 -500 
Q 600 -375 350 -250 
Q 600 100 725 612 
Q 850 1125 875 1925 
Q 900 2725 875 3525 
Q 675 3300 550 3175 
Q 400 3375 200 3525 
Q 575 3825 887 4262 
Q 1200 4700 1400 5300 
Q 1600 5175 1925 5025 
z
M 4325 2425 
Q 4200 2325 4150 2125 
L 4575 2125 
Q 4575 2650 4550 2825 
L 5050 2825 
Q 5000 2600 5000 2125 
L 5350 2125 
Q 5725 2125 5950 2150 
L 5950 1700 
Q 5625 1750 5300 1750 
L 5000 1750 
L 5000 1025 
L 5175 1025 
Q 5650 1025 6150 1050 
L 6150 625 
Q 5675 650 5175 650 
L 5000 650 
L 5000 225 
Q 5000 -125 5025 -650 
L 4550 -650 
Q 4575 -125 4575 225 
L 4575 650 
L 4025 650 
Q 3750 650 3325 625 
L 3325 1050 
Q 3700 1025 4025 1025 
L 4575 1025 
L 4575 1750 
L 3950 1750 
Q 3875 1550 3725 1250 
Q 3550 1350 3325 1525 
Q 3500 1725 3625 2050 
Q 3750 2375 3825 2675 
L 4325 2425 
z
M 4900 2975 
Q 4850 3250 4725 3500 
Q 5000 3500 5162 3525 
Q 5325 3550 5350 3675 
Q 5375 3800 5425 4550 
L 4525 4550 
Q 4375 3850 4225 3537 
Q 4075 3225 3750 2850 
Q 3600 3050 3350 3225 
Q 3625 3425 3800 3737 
Q 3975 4050 4050 4550 
Q 3750 4550 3325 4525 
L 3325 4950 
Q 3725 4925 4050 4925 
L 5925 4925 
Q 5850 3700 5787 3450 
Q 5725 3200 5475 3100 
Q 5225 3000 4900 2975 
z
M 1825 3650 
Q 2025 3900 2175 4200 
L 1375 4200 
Q 1150 3900 975 3650 
L 1825 3650 
z
M 2750 1550 
L 2750 2225 
L 2225 2225 
L 2225 1550 
L 2750 1550 
z
M 2750 2600 
L 2750 3275 
L 2225 3275 
L 2225 2600 
L 2750 2600 
z
M 1800 1550 
L 1800 2225 
L 1325 2225 
L 1300 1550 
L 1800 1550 
z
M 1800 2600 
L 1800 3275 
L 1325 3275 
L 1325 2600 
L 1800 2600 
z
" transform="scale(0.015625)"/>
        <path id="SimHei-51bb" d="M 5075 4300 
Q 5625 4300 5975 4325 
L 5975 3850 
Q 5550 3875 5050 3875 
L 3475 3875 
Q 3025 2950 2725 2475 
L 3800 2475 
Q 3800 3025 3775 3350 
L 4325 3350 
Q 4300 3100 4300 2475 
L 4700 2475 
Q 5275 2475 5675 2500 
L 5675 2025 
Q 5275 2050 4700 2050 
L 4300 2050 
L 4300 125 
Q 4300 -325 4025 -437 
Q 3750 -550 3275 -650 
Q 3225 -350 3075 -50 
Q 3625 -50 3712 12 
Q 3800 75 3800 350 
L 3800 2050 
Q 2675 2075 2225 1925 
Q 2150 2225 2050 2450 
Q 2250 2550 2462 2887 
Q 2675 3225 2950 3875 
Q 2225 3875 1850 3850 
L 1850 4325 
Q 2250 4300 3125 4300 
Q 3375 5000 3400 5250 
Q 3675 5125 3975 5025 
Q 3875 4925 3625 4300 
L 5075 4300 
z
M 1750 2075 
Q 1525 1700 1225 1075 
Q 925 450 725 75 
Q 500 325 250 450 
Q 575 900 837 1425 
Q 1100 1950 1300 2425 
Q 1475 2200 1750 2075 
z
M 3250 1200 
Q 3100 1050 2750 637 
Q 2400 225 2000 -225 
Q 1850 0 1600 150 
Q 1900 400 2250 812 
Q 2600 1225 2800 1575 
Q 3025 1375 3250 1200 
z
M 5075 1575 
Q 5325 1300 5575 975 
Q 5825 650 6100 275 
Q 5850 150 5650 -50 
Q 5425 375 4700 1250 
Q 4900 1375 5075 1575 
z
M 825 4675 
Q 1475 3875 1725 3550 
Q 1525 3450 1250 3225 
Q 1050 3600 400 4350 
Q 650 4500 825 4675 
z
" transform="scale(0.015625)"/>
       </defs>
       <use xlink:href="#SimHei-89e3"/>
       <use xlink:href="#SimHei-51bb" transform="translate(100 0)"/>
      </g>
     </g>
    </g>
    <g id="xtick_6">
     <g id="line2d_6">
      <g>
       <use xlink:href="#m020898fd2f" x="906.312825" y="507.43775" style="stroke: #000000; stroke-width: 0.8"/>
      </g>
     </g>
     <g id="text_6">
      <!-- 最终 -->
      <g transform="translate(894.312825 523.859625) scale(0.12 -0.12)">
       <defs>
        <path id="SimHei-6700" d="M 475 275 
Q 675 300 1100 350 
L 1100 2450 
Q 775 2450 425 2425 
L 425 2850 
Q 775 2825 1125 2825 
L 5025 2825 
Q 5475 2825 5900 2850 
L 5900 2425 
Q 5475 2450 5025 2450 
L 3050 2450 
L 3050 675 
L 3400 775 
Q 3400 550 3425 400 
Q 3225 350 3050 325 
Q 3050 -125 3075 -550 
L 2600 -550 
Q 2625 -125 2625 250 
Q 2350 200 1812 87 
Q 1275 -25 650 -175 
Q 575 100 475 275 
z
M 5100 4925 
Q 5075 4600 5075 4325 
L 5075 3875 
Q 5075 3600 5100 3250 
L 1275 3250 
Q 1300 3600 1300 3875 
L 1300 4325 
Q 1300 4600 1275 4925 
L 5100 4925 
z
M 3300 2050 
Q 3750 2025 4125 2025 
L 5375 2025 
Q 5100 975 4725 400 
Q 5350 0 5925 -100 
Q 5700 -275 5650 -500 
Q 5025 -300 4475 150 
Q 4150 -200 3600 -575 
Q 3500 -425 3250 -275 
Q 3775 -100 4150 350 
Q 3725 775 3500 1675 
L 3300 1675 
L 3300 2050 
z
M 4600 4250 
L 4600 4600 
L 1750 4600 
L 1750 4250 
L 4600 4250 
z
M 4600 3575 
L 4600 3900 
L 1750 3900 
L 1750 3575 
L 4600 3575 
z
M 3900 1675 
Q 4000 1075 4400 625 
Q 4700 1050 4850 1675 
L 3900 1675 
z
M 2625 1250 
L 2625 1675 
L 1525 1675 
L 1525 1250 
L 2625 1250 
z
M 2625 575 
L 2625 925 
L 1525 925 
L 1525 425 
L 2625 575 
z
M 2625 2025 
L 2625 2450 
L 1525 2450 
L 1525 2025 
L 2625 2025 
z
" transform="scale(0.015625)"/>
        <path id="SimHei-7ec8" d="M 4075 4950 
Q 3950 4800 3750 4400 
L 5600 4400 
Q 5375 3825 5162 3450 
Q 4950 3075 4575 2625 
Q 4900 2350 5350 2100 
Q 5800 1850 6075 1775 
Q 5850 1575 5725 1325 
Q 4950 1700 4250 2325 
Q 4000 2100 3587 1837 
Q 3175 1575 2675 1300 
Q 2575 1550 2325 1725 
Q 2850 1900 3300 2162 
Q 3750 2425 3950 2625 
Q 3575 3100 3350 3625 
Q 3050 3100 2800 2750 
Q 2550 2950 2375 3025 
Q 2650 3325 2862 3662 
Q 3075 4000 3250 4375 
Q 3425 4750 3550 5200 
Q 3850 5025 4075 4950 
z
M 2225 1200 
Q 2075 1175 1587 1125 
Q 1100 1075 550 950 
Q 475 1175 350 1475 
Q 600 1550 862 1900 
Q 1125 2250 1375 2700 
Q 1225 2700 950 2650 
Q 675 2600 475 2500 
Q 375 2800 225 3025 
Q 550 3275 825 3875 
Q 1100 4475 1275 5075 
Q 1575 4900 1800 4825 
Q 1650 4600 1400 4125 
Q 1150 3650 825 3025 
Q 1000 3025 1600 3075 
Q 1900 3550 2075 3975 
Q 2400 3750 2575 3675 
Q 2325 3350 1962 2800 
Q 1600 2250 1075 1525 
Q 1300 1525 2200 1650 
Q 2200 1400 2225 1200 
z
M 3250 725 
Q 4900 150 5425 -125 
Q 5325 -325 5200 -625 
Q 4525 -225 4050 -62 
Q 3575 100 3025 250 
Q 3175 500 3250 725 
z
M 2350 100 
Q 1900 25 1387 -87 
Q 875 -200 475 -375 
Q 425 -125 275 175 
Q 1025 250 2375 575 
Q 2350 350 2350 100 
z
M 3725 1750 
Q 4175 1575 4550 1437 
Q 4925 1300 5275 1150 
Q 5150 975 5050 700 
Q 4750 850 4400 987 
Q 4050 1125 3525 1275 
Q 3675 1500 3725 1750 
z
M 4275 2950 
Q 4675 3375 4925 4000 
L 3650 4000 
Q 3925 3325 4275 2950 
z
" transform="scale(0.015625)"/>
       </defs>
       <use xlink:href="#SimHei-6700"/>
       <use xlink:href="#SimHei-7ec8" transform="translate(100 0)"/>
      </g>
      <!-- 优化模型 -->
      <g transform="translate(882.312825 536.722125) scale(0.12 -0.12)">
       <defs>
        <path id="SimHei-4f18" d="M 4650 350 
Q 4625 100 4825 50 
Q 5025 0 5200 12 
Q 5375 25 5462 125 
Q 5550 225 5650 800 
Q 5825 625 6200 525 
Q 6050 -25 5912 -200 
Q 5775 -375 5475 -400 
L 4700 -400 
Q 4175 -400 4175 200 
L 4175 3050 
L 3850 3050 
Q 3725 600 2375 -550 
Q 2200 -325 1875 -225 
Q 3175 675 3350 3050 
L 2900 3050 
Q 2350 3050 1975 3025 
L 1975 3475 
Q 2350 3450 2900 3450 
L 3375 3450 
Q 3375 4700 3350 5150 
Q 3525 5100 3925 5075 
Q 3850 4700 3850 3450 
L 5200 3450 
Q 5475 3450 5925 3475 
L 5925 3025 
Q 5500 3050 5225 3050 
L 4650 3050 
L 4650 350 
z
M 200 2375 
Q 525 2700 1000 3612 
Q 1475 4525 1600 5200 
Q 1850 5050 2225 4925 
Q 2000 4700 1700 3825 
L 1700 600 
Q 1700 -150 1725 -525 
L 1200 -525 
Q 1225 -175 1225 575 
L 1225 2975 
Q 900 2425 550 1975 
Q 425 2200 200 2375 
z
M 4850 5025 
Q 5000 4800 5150 4587 
Q 5300 4375 5450 4200 
Q 5250 4075 5025 3875 
Q 4875 4175 4450 4725 
Q 4625 4850 4850 5025 
z
" transform="scale(0.015625)"/>
        <path id="SimHei-6a21" d="M 5700 3675 
Q 5675 3400 5675 2725 
Q 5675 2050 5700 1725 
L 4375 1725 
Q 4350 1450 4325 1200 
L 5225 1200 
Q 5750 1200 6025 1225 
L 6025 825 
Q 5725 850 5225 850 
L 4700 850 
Q 5075 375 5437 137 
Q 5800 -100 6200 -200 
Q 5975 -375 5850 -625 
Q 5275 -400 4862 25 
Q 4450 450 4300 775 
L 4225 775 
Q 4000 275 3537 -62 
Q 3075 -400 2475 -625 
Q 2350 -375 2125 -200 
Q 2775 -75 3200 200 
Q 3625 475 3775 850 
L 3325 850 
Q 2800 850 2400 825 
L 2400 1225 
Q 2800 1200 3350 1200 
L 3875 1200 
Q 3925 1475 3925 1725 
L 2750 1725 
Q 2775 2075 2775 2700 
Q 2775 3350 2750 3675 
L 5700 3675 
z
M 2175 1650 
Q 2025 1975 1675 2525 
L 1675 300 
Q 1675 -300 1700 -550 
L 1175 -550 
Q 1200 -275 1200 250 
L 1200 2225 
Q 1125 2000 962 1712 
Q 800 1425 600 1050 
Q 450 1275 200 1425 
Q 600 1825 850 2425 
Q 1100 3025 1175 3425 
L 950 3425 
Q 700 3425 400 3400 
L 400 3825 
Q 675 3800 825 3800 
L 1200 3800 
L 1200 4350 
Q 1200 4775 1175 5150 
L 1700 5150 
Q 1675 4825 1675 4425 
L 1675 3800 
Q 2075 3800 2375 3825 
L 2375 3400 
Q 2050 3425 1675 3425 
L 1675 2575 
Q 1850 2675 2000 2775 
Q 2150 2525 2287 2325 
Q 2425 2125 2550 1925 
Q 2325 1775 2175 1650 
z
M 3375 4300 
L 3175 4300 
Q 2700 4300 2425 4275 
L 2425 4675 
Q 2700 4650 3150 4650 
L 3375 4650 
Q 3375 5000 3350 5225 
L 3825 5225 
Q 3800 5000 3800 4650 
L 4550 4650 
Q 4550 4975 4525 5200 
L 5025 5200 
Q 5000 4925 5000 4650 
L 5375 4650 
Q 5650 4650 5950 4675 
L 5950 4275 
Q 5650 4300 5375 4300 
L 5000 4300 
L 5000 3850 
L 4550 3850 
L 4550 4300 
L 3800 4300 
L 3800 3875 
L 3375 3875 
L 3375 4300 
z
M 5275 2075 
L 5275 2525 
L 3200 2525 
L 3200 2075 
L 5275 2075 
z
M 5275 2875 
L 5275 3325 
L 3200 3325 
L 3200 2875 
L 5275 2875 
z
" transform="scale(0.015625)"/>
        <path id="SimHei-578b" d="M 2625 1775 
Q 2650 2325 2650 2700 
L 2650 3000 
L 1825 3000 
Q 1725 2375 1425 2000 
Q 1125 1625 775 1425 
Q 650 1650 375 1900 
Q 850 2075 1062 2362 
Q 1275 2650 1350 3000 
Q 900 3000 375 2975 
L 375 3450 
Q 925 3425 1400 3425 
Q 1425 3950 1425 4475 
Q 1075 4475 700 4450 
L 700 4900 
Q 1050 4875 1525 4875 
L 3000 4875 
Q 3275 4875 3650 4900 
L 3650 4450 
Q 3325 4475 3125 4475 
L 3125 3425 
Q 3450 3425 3825 3450 
L 3825 2975 
Q 3450 3000 3125 3000 
L 3125 2675 
Q 3125 2225 3150 1775 
L 2625 1775 
z
M 3000 1175 
Q 3000 1375 2975 1725 
L 3500 1725 
Q 3475 1375 3475 1175 
L 4550 1175 
Q 5050 1175 5450 1200 
L 5450 725 
Q 4975 750 4550 750 
L 3475 750 
L 3475 -50 
L 5275 -50 
Q 5700 -50 6100 -25 
L 6100 -500 
Q 5725 -475 5300 -475 
L 1250 -475 
Q 775 -475 400 -500 
L 400 -25 
Q 775 -50 1250 -50 
L 3000 -50 
L 3000 750 
L 2025 750 
Q 1500 750 975 725 
L 1050 1200 
Q 1500 1175 2025 1175 
L 3000 1175 
z
M 5775 5200 
Q 5750 4775 5750 4325 
L 5750 2400 
Q 5775 1950 5612 1775 
Q 5450 1600 4900 1525 
Q 4825 1775 4675 2100 
Q 5175 2075 5237 2150 
Q 5300 2225 5300 2525 
L 5300 4325 
Q 5300 4775 5275 5200 
L 5775 5200 
z
M 4600 4750 
Q 4575 4450 4575 3975 
L 4575 3200 
Q 4575 2825 4600 2425 
L 4100 2425 
Q 4125 2825 4125 3200 
L 4125 3975 
Q 4125 4450 4100 4750 
L 4600 4750 
z
M 2650 3425 
L 2650 4475 
L 1875 4475 
Q 1850 3750 1850 3425 
L 2650 3425 
z
" transform="scale(0.015625)"/>
       </defs>
       <use xlink:href="#SimHei-4f18"/>
       <use xlink:href="#SimHei-5316" transform="translate(100 0)"/>
       <use xlink:href="#SimHei-6a21" transform="translate(200 0)"/>
       <use xlink:href="#SimHei-578b" transform="translate(300 0)"/>
      </g>
     </g>
    </g>
    <g id="text_7">
     <!-- 模型配置 -->
     <g transform="translate(498.95 559.503375) scale(0.14 -0.14)">
      <defs>
       <path id="SimHei-914d" d="M 1250 3825 
L 1250 4575 
Q 675 4575 275 4550 
L 275 5025 
Q 700 5000 1750 5000 
Q 2800 5000 3300 5025 
L 3300 4550 
Q 2975 4575 2425 4575 
L 2425 3825 
L 3275 3825 
Q 3250 3000 3250 1700 
Q 3250 400 3275 -500 
L 2800 -500 
L 2800 -50 
L 875 -50 
L 875 -575 
L 425 -575 
Q 450 225 450 1725 
Q 450 3250 425 3825 
L 1250 3825 
z
M 3550 5050 
Q 4150 5025 4550 5025 
L 5775 5025 
Q 5750 4550 5750 3725 
Q 5750 2925 5775 2475 
L 4175 2475 
L 4175 225 
Q 4175 -100 4500 -100 
L 5300 -100 
Q 5500 -100 5562 125 
Q 5625 350 5625 700 
Q 5875 500 6175 450 
Q 6000 -175 5887 -350 
Q 5775 -525 5425 -525 
L 4175 -525 
Q 3725 -525 3725 75 
L 3725 2075 
Q 3725 2425 3700 2875 
L 5275 2875 
L 5275 4600 
Q 4025 4600 3550 4575 
L 3550 5050 
z
M 875 1225 
L 2800 1225 
L 2800 1800 
L 2300 1800 
Q 2025 1875 2025 2175 
L 2025 3450 
L 1625 3450 
Q 1625 2900 1575 2475 
Q 1525 2050 1300 1575 
Q 1125 1700 875 1750 
L 875 1225 
z
M 2800 350 
L 2800 875 
L 875 875 
L 875 350 
L 2800 350 
z
M 2400 2450 
Q 2400 2125 2800 2175 
L 2800 3450 
L 2400 3450 
L 2400 2450 
z
M 875 1850 
Q 1100 2150 1175 2537 
Q 1250 2925 1250 3450 
L 875 3450 
L 875 1850 
z
M 2025 3825 
L 2025 4575 
L 1625 4575 
L 1625 3825 
L 2025 3825 
z
" transform="scale(0.015625)"/>
       <path id="SimHei-7f6e" d="M 3600 3650 
Q 3525 3475 3475 3325 
L 4750 3325 
Q 5100 3325 5675 3350 
L 5675 2925 
Q 5125 2950 4750 2950 
L 3400 2950 
L 3350 2600 
L 5000 2600 
Q 4975 1975 4975 1550 
L 4975 -50 
Q 5575 -50 6025 -25 
L 6025 -400 
Q 5475 -375 5000 -375 
L 1400 -375 
Q 900 -375 400 -400 
L 400 -25 
Q 925 -50 1450 -50 
L 1450 1550 
Q 1450 1975 1425 2600 
L 2875 2600 
L 2925 2950 
L 1600 2950 
Q 1150 2950 650 2925 
L 650 3350 
Q 1150 3325 1600 3325 
L 2975 3325 
Q 3000 3525 3000 3700 
Q 3250 3650 3600 3650 
z
M 5575 4950 
Q 5550 4600 5550 4300 
Q 5550 4000 5575 3775 
L 900 3775 
Q 925 4075 925 4325 
Q 925 4600 900 4950 
L 5575 4950 
z
M 4575 1900 
L 4575 2250 
L 1850 2250 
L 1850 1900 
L 4575 1900 
z
M 4575 1250 
L 4575 1575 
L 1850 1575 
L 1850 1250 
L 4575 1250 
z
M 4575 -50 
L 4575 275 
L 1850 275 
L 1850 -50 
L 4575 -50 
z
M 4575 625 
L 4575 875 
L 1850 875 
L 1850 625 
L 4575 625 
z
M 3700 4100 
L 3700 4625 
L 2700 4625 
L 2700 4100 
L 3700 4100 
z
M 5075 4100 
L 5075 4625 
L 4100 4625 
L 4100 4100 
L 5075 4100 
z
M 2350 4100 
L 2350 4625 
L 1400 4625 
L 1400 4100 
L 2350 4100 
z
" transform="scale(0.015625)"/>
      </defs>
      <use xlink:href="#SimHei-6a21"/>
      <use xlink:href="#SimHei-578b" transform="translate(100 0)"/>
      <use xlink:href="#SimHei-914d" transform="translate(200 0)"/>
      <use xlink:href="#SimHei-7f6e" transform="translate(300 0)"/>
     </g>
    </g>
   </g>
   <g id="matplotlib.axis_2">
    <g id="ytick_1">
     <g id="line2d_7">
      <path d="M 59.575 507.43775 
L 994.325 507.43775 
" clip-path="url(#p7f1d504d21)" style="fill: none; stroke-dasharray: 2.96,1.28; stroke-dashoffset: 0; stroke: #b0b0b0; stroke-opacity: 0.7; stroke-width: 0.8"/>
     </g>
     <g id="line2d_8">
      <defs>
       <path id="m282710ff4e" d="M 0 0 
L -3.5 0 
" style="stroke: #000000; stroke-width: 0.8"/>
      </defs>
      <g>
       <use xlink:href="#m282710ff4e" x="59.575" y="507.43775" style="stroke: #000000; stroke-width: 0.8"/>
      </g>
     </g>
     <g id="text_8">
      <!-- 0.00 -->
      <g transform="translate(28.575 511.56275) scale(0.12 -0.12)">
       <defs>
        <path id="SimHei-2e" d="M 1075 125 
L 500 125 
L 500 675 
L 1075 675 
L 1075 125 
z
" transform="scale(0.015625)"/>
       </defs>
       <use xlink:href="#SimHei-30"/>
       <use xlink:href="#SimHei-2e" transform="translate(50 0)"/>
       <use xlink:href="#SimHei-30" transform="translate(100 0)"/>
       <use xlink:href="#SimHei-30" transform="translate(150 0)"/>
      </g>
     </g>
    </g>
    <g id="ytick_2">
     <g id="line2d_9">
      <path d="M 59.575 427.011252 
L 994.325 427.011252 
" clip-path="url(#p7f1d504d21)" style="fill: none; stroke-dasharray: 2.96,1.28; stroke-dashoffset: 0; stroke: #b0b0b0; stroke-opacity: 0.7; stroke-width: 0.8"/>
     </g>
     <g id="line2d_10">
      <g>
       <use xlink:href="#m282710ff4e" x="59.575" y="427.011252" style="stroke: #000000; stroke-width: 0.8"/>
      </g>
     </g>
     <g id="text_9">
      <!-- 0.05 -->
      <g transform="translate(28.575 431.136252) scale(0.12 -0.12)">
       <use xlink:href="#SimHei-30"/>
       <use xlink:href="#SimHei-2e" transform="translate(50 0)"/>
       <use xlink:href="#SimHei-30" transform="translate(100 0)"/>
       <use xlink:href="#SimHei-35" transform="translate(150 0)"/>
      </g>
     </g>
    </g>
    <g id="ytick_3">
     <g id="line2d_11">
      <path d="M 59.575 346.584754 
L 994.325 346.584754 
" clip-path="url(#p7f1d504d21)" style="fill: none; stroke-dasharray: 2.96,1.28; stroke-dashoffset: 0; stroke: #b0b0b0; stroke-opacity: 0.7; stroke-width: 0.8"/>
     </g>
     <g id="line2d_12">
      <g>
       <use xlink:href="#m282710ff4e" x="59.575" y="346.584754" style="stroke: #000000; stroke-width: 0.8"/>
      </g>
     </g>
     <g id="text_10">
      <!-- 0.10 -->
      <g transform="translate(28.575 350.709754) scale(0.12 -0.12)">
       <use xlink:href="#SimHei-30"/>
       <use xlink:href="#SimHei-2e" transform="translate(50 0)"/>
       <use xlink:href="#SimHei-31" transform="translate(100 0)"/>
       <use xlink:href="#SimHei-30" transform="translate(150 0)"/>
      </g>
     </g>
    </g>
    <g id="ytick_4">
     <g id="line2d_13">
      <path d="M 59.575 266.158256 
L 994.325 266.158256 
" clip-path="url(#p7f1d504d21)" style="fill: none; stroke-dasharray: 2.96,1.28; stroke-dashoffset: 0; stroke: #b0b0b0; stroke-opacity: 0.7; stroke-width: 0.8"/>
     </g>
     <g id="line2d_14">
      <g>
       <use xlink:href="#m282710ff4e" x="59.575" y="266.158256" style="stroke: #000000; stroke-width: 0.8"/>
      </g>
     </g>
     <g id="text_11">
      <!-- 0.15 -->
      <g transform="translate(28.575 270.283256) scale(0.12 -0.12)">
       <use xlink:href="#SimHei-30"/>
       <use xlink:href="#SimHei-2e" transform="translate(50 0)"/>
       <use xlink:href="#SimHei-31" transform="translate(100 0)"/>
       <use xlink:href="#SimHei-35" transform="translate(150 0)"/>
      </g>
     </g>
    </g>
    <g id="ytick_5">
     <g id="line2d_15">
      <path d="M 59.575 185.731757 
L 994.325 185.731757 
" clip-path="url(#p7f1d504d21)" style="fill: none; stroke-dasharray: 2.96,1.28; stroke-dashoffset: 0; stroke: #b0b0b0; stroke-opacity: 0.7; stroke-width: 0.8"/>
     </g>
     <g id="line2d_16">
      <g>
       <use xlink:href="#m282710ff4e" x="59.575" y="185.731757" style="stroke: #000000; stroke-width: 0.8"/>
      </g>
     </g>
     <g id="text_12">
      <!-- 0.20 -->
      <g transform="translate(28.575 189.856757) scale(0.12 -0.12)">
       <defs>
        <path id="SimHei-32" d="M 300 250 
Q 325 625 650 925 
Q 975 1225 1475 1862 
Q 1975 2500 2125 2850 
Q 2275 3200 2237 3450 
Q 2200 3700 2000 3862 
Q 1800 4025 1537 4000 
Q 1275 3975 1037 3800 
Q 800 3625 675 3275 
L 200 3350 
Q 400 3925 712 4187 
Q 1025 4450 1450 4475 
Q 1700 4500 1900 4462 
Q 2100 4425 2312 4287 
Q 2525 4150 2662 3875 
Q 2800 3600 2762 3212 
Q 2725 2825 2375 2287 
Q 2025 1750 1025 600 
L 2825 600 
L 2825 150 
L 300 150 
L 300 250 
z
" transform="scale(0.015625)"/>
       </defs>
       <use xlink:href="#SimHei-30"/>
       <use xlink:href="#SimHei-2e" transform="translate(50 0)"/>
       <use xlink:href="#SimHei-32" transform="translate(100 0)"/>
       <use xlink:href="#SimHei-30" transform="translate(150 0)"/>
      </g>
     </g>
    </g>
    <g id="ytick_6">
     <g id="line2d_17">
      <path d="M 59.575 105.305259 
L 994.325 105.305259 
" clip-path="url(#p7f1d504d21)" style="fill: none; stroke-dasharray: 2.96,1.28; stroke-dashoffset: 0; stroke: #b0b0b0; stroke-opacity: 0.7; stroke-width: 0.8"/>
     </g>
     <g id="line2d_18">
      <g>
       <use xlink:href="#m282710ff4e" x="59.575" y="105.305259" style="stroke: #000000; stroke-width: 0.8"/>
      </g>
     </g>
     <g id="text_13">
      <!-- 0.25 -->
      <g transform="translate(28.575 109.430259) scale(0.12 -0.12)">
       <use xlink:href="#SimHei-30"/>
       <use xlink:href="#SimHei-2e" transform="translate(50 0)"/>
       <use xlink:href="#SimHei-32" transform="translate(100 0)"/>
       <use xlink:href="#SimHei-35" transform="translate(150 0)"/>
      </g>
     </g>
    </g>
    <g id="text_14">
     <!-- Mean R@1 -->
     <g transform="translate(16.825 299.225125) rotate(-90) scale(0.14 -0.14)">
      <defs>
       <path id="SimHei-40" d="M 3000 2650 
Q 3000 1725 2737 1375 
Q 2475 1025 2175 1025 
Q 2050 1025 1950 1100 
Q 1850 1175 1800 1325 
Q 1675 1175 1550 1100 
Q 1425 1025 1300 1025 
Q 1050 1025 875 1237 
Q 700 1450 700 1850 
Q 700 2525 1050 3050 
Q 1400 3575 1725 3575 
Q 1850 3575 1900 3550 
Q 1950 3525 2025 3375 
L 2150 3575 
L 2425 3575 
L 2075 1675 
Q 2050 1525 2100 1450 
Q 2150 1375 2250 1375 
Q 2525 1375 2637 1712 
Q 2750 2050 2750 2650 
Q 2750 3400 2462 3825 
Q 2175 4250 1700 4250 
Q 1175 4250 775 3737 
Q 375 3225 375 2175 
Q 375 1125 750 700 
Q 1125 275 1650 275 
Q 1850 275 2075 387 
Q 2300 500 2425 725 
L 2550 550 
Q 2400 350 2162 212 
Q 1925 75 1650 75 
Q 1025 75 575 562 
Q 125 1050 125 2175 
Q 125 3300 600 3875 
Q 1075 4450 1700 4450 
Q 2300 4450 2650 3950 
Q 3000 3450 3000 2650 
z
M 1950 2975 
Q 1975 3125 1925 3212 
Q 1875 3300 1750 3300 
Q 1550 3300 1325 2837 
Q 1100 2375 1100 1875 
Q 1100 1600 1187 1475 
Q 1275 1350 1400 1350 
Q 1550 1350 1625 1475 
Q 1700 1600 1725 1750 
L 1950 2975 
z
" transform="scale(0.015625)"/>
      </defs>
      <use xlink:href="#SimHei-4d"/>
      <use xlink:href="#SimHei-65" transform="translate(50 0)"/>
      <use xlink:href="#SimHei-61" transform="translate(100 0)"/>
      <use xlink:href="#SimHei-6e" transform="translate(150 0)"/>
      <use xlink:href="#SimHei-20" transform="translate(200 0)"/>
      <use xlink:href="#SimHei-52" transform="translate(250 0)"/>
      <use xlink:href="#SimHei-40" transform="translate(300 0)"/>
      <use xlink:href="#SimHei-31" transform="translate(350 0)"/>
     </g>
    </g>
   </g>
   <g id="patch_3">
    <path d="M 102.063636 507.43775 
L 193.110714 507.43775 
L 193.110714 251.681486 
L 102.063636 251.681486 
z
" clip-path="url(#p7f1d504d21)" style="fill: #87ceeb; stroke: #000000; stroke-linejoin: miter"/>
   </g>
   <g id="patch_4">
    <path d="M 253.808766 507.43775 
L 344.855844 507.43775 
L 344.855844 213.076767 
L 253.808766 213.076767 
z
" clip-path="url(#p7f1d504d21)" style="fill: #87ceeb; stroke: #000000; stroke-linejoin: miter"/>
   </g>
   <g id="patch_5">
    <path d="M 405.553896 507.43775 
L 496.600974 507.43775 
L 496.600974 172.863518 
L 405.553896 172.863518 
z
" clip-path="url(#p7f1d504d21)" style="fill: #87ceeb; stroke: #000000; stroke-linejoin: miter"/>
   </g>
   <g id="patch_6">
    <path d="M 557.299026 507.43775 
L 648.346104 507.43775 
L 648.346104 143.909978 
L 557.299026 143.909978 
z
" clip-path="url(#p7f1d504d21)" style="fill: #87ceeb; stroke: #000000; stroke-linejoin: miter"/>
   </g>
   <g id="patch_7">
    <path d="M 709.044156 507.43775 
L 800.091234 507.43775 
L 800.091234 118.173499 
L 709.044156 118.173499 
z
" clip-path="url(#p7f1d504d21)" style="fill: #87ceeb; stroke: #000000; stroke-linejoin: miter"/>
   </g>
   <g id="patch_8">
    <path d="M 860.789286 507.43775 
L 951.836364 507.43775 
L 951.836364 77.96025 
L 860.789286 77.96025 
z
" clip-path="url(#p7f1d504d21)" style="fill: #87ceeb; stroke: #000000; stroke-linejoin: miter"/>
   </g>
   <g id="patch_9">
    <path d="M 59.575 507.43775 
L 59.575 35.0125 
" style="fill: none; stroke: #000000; stroke-width: 0.8; stroke-linejoin: miter; stroke-linecap: square"/>
   </g>
   <g id="patch_10">
    <path d="M 994.325 507.43775 
L 994.325 35.0125 
" style="fill: none; stroke: #000000; stroke-width: 0.8; stroke-linejoin: miter; stroke-linecap: square"/>
   </g>
   <g id="patch_11">
    <path d="M 59.575 507.43775 
L 994.325 507.43775 
" style="fill: none; stroke: #000000; stroke-width: 0.8; stroke-linejoin: miter; stroke-linecap: square"/>
   </g>
   <g id="patch_12">
    <path d="M 59.575 35.0125 
L 994.325 35.0125 
" style="fill: none; stroke: #000000; stroke-width: 0.8; stroke-linejoin: miter; stroke-linecap: square"/>
   </g>
   <g id="text_15">
    <!-- 0.159 -->
    <g transform="translate(133.837175 242.263836) scale(0.11 -0.11)">
     <defs>
      <path id="SimHei-39" d="M 800 75 
Q 1350 1000 1700 1750 
Q 1075 1650 662 1912 
Q 250 2175 162 2625 
Q 75 3075 175 3437 
Q 275 3800 487 4037 
Q 700 4275 1000 4375 
Q 1300 4475 1537 4475 
Q 1775 4475 2025 4375 
Q 2275 4275 2475 4075 
Q 2675 3875 2750 3662 
Q 2825 3450 2825 3112 
Q 2825 2775 2575 2250 
Q 2325 1725 1350 75 
L 800 75 
z
M 662 2875 
Q 700 2550 937 2337 
Q 1175 2125 1450 2150 
Q 1725 2175 1887 2300 
Q 2050 2425 2200 2725 
Q 2300 3100 2250 3362 
Q 2200 3625 1987 3800 
Q 1775 3975 1525 3975 
Q 1375 4000 1137 3900 
Q 900 3800 762 3500 
Q 625 3200 662 2875 
z
" transform="scale(0.015625)"/>
     </defs>
     <use xlink:href="#SimHei-30"/>
     <use xlink:href="#SimHei-2e" transform="translate(50 0)"/>
     <use xlink:href="#SimHei-31" transform="translate(100 0)"/>
     <use xlink:href="#SimHei-35" transform="translate(150 0)"/>
     <use xlink:href="#SimHei-39" transform="translate(200 0)"/>
    </g>
   </g>
   <g id="text_16">
    <!-- 0.183 -->
    <g transform="translate(285.582305 203.659117) scale(0.11 -0.11)">
     <defs>
      <path id="SimHei-38" d="M 175 1375 
Q 175 1675 325 1962 
Q 475 2250 825 2425 
Q 525 2600 425 2812 
Q 325 3025 312 3300 
Q 300 3575 387 3775 
Q 475 3975 650 4150 
Q 825 4325 1037 4387 
Q 1250 4450 1500 4450 
Q 1750 4450 1950 4400 
Q 2150 4350 2375 4187 
Q 2600 4025 2700 3725 
Q 2800 3425 2687 3025 
Q 2575 2625 2100 2400 
Q 2525 2275 2700 2012 
Q 2875 1750 2875 1375 
Q 2875 1000 2762 775 
Q 2650 550 2512 400 
Q 2375 250 2137 162 
Q 1900 75 1537 75 
Q 1175 75 912 162 
Q 650 250 475 425 
Q 300 600 237 837 
Q 175 1075 175 1375 
z
M 687 1400 
Q 675 1100 787 875 
Q 900 650 1200 587 
Q 1500 525 1825 600 
Q 2150 675 2275 950 
Q 2400 1225 2362 1500 
Q 2325 1775 2050 1962 
Q 1775 2150 1450 2125 
Q 1125 2100 912 1900 
Q 700 1700 687 1400 
z
M 775 3350 
Q 775 3100 950 2875 
Q 1125 2650 1500 2650 
Q 1875 2650 2062 2875 
Q 2250 3100 2237 3412 
Q 2225 3725 2012 3875 
Q 1800 4025 1437 4000 
Q 1075 3975 925 3787 
Q 775 3600 775 3350 
z
" transform="scale(0.015625)"/>
      <path id="SimHei-33" d="M 250 1225 
L 700 1300 
Q 800 975 1025 762 
Q 1250 550 1587 562 
Q 1925 575 2125 837 
Q 2325 1100 2300 1437 
Q 2275 1775 2037 1962 
Q 1800 2150 1275 2225 
L 1275 2550 
Q 1800 2600 2037 2825 
Q 2275 3050 2250 3412 
Q 2225 3775 1925 3937 
Q 1625 4100 1287 3975 
Q 950 3850 750 3275 
L 300 3350 
Q 450 3800 712 4100 
Q 975 4400 1425 4450 
Q 1875 4500 2212 4337 
Q 2550 4175 2687 3837 
Q 2825 3500 2725 3100 
Q 2625 2700 2150 2400 
Q 2500 2250 2687 1950 
Q 2875 1650 2812 1162 
Q 2750 675 2375 375 
Q 2000 75 1525 87 
Q 1050 100 700 387 
Q 350 675 250 1225 
z
" transform="scale(0.015625)"/>
     </defs>
     <use xlink:href="#SimHei-30"/>
     <use xlink:href="#SimHei-2e" transform="translate(50 0)"/>
     <use xlink:href="#SimHei-31" transform="translate(100 0)"/>
     <use xlink:href="#SimHei-38" transform="translate(150 0)"/>
     <use xlink:href="#SimHei-33" transform="translate(200 0)"/>
    </g>
   </g>
   <g id="text_17">
    <g id="patch_13">
     <path d="M 281.332305 368.732258 
L 317.332305 368.732258 
Q 320.932305 368.732258 320.932305 365.132258 
L 320.932305 355.382258 
Q 320.932305 351.782258 317.332305 351.782258 
L 281.332305 351.782258 
Q 277.732305 351.782258 277.732305 355.382258 
L 277.732305 365.132258 
Q 277.732305 368.732258 281.332305 368.732258 
z
" style="fill: #ffffff; opacity: 0.7; stroke: #000000; stroke-linejoin: miter"/>
    </g>
    <!-- +15.1% -->
    <g transform="translate(281.332305 363.632258) scale(0.12 -0.12)">
     <defs>
      <path id="SimHei-25" d="M 1400 3325 
Q 1400 2600 1187 2400 
Q 975 2200 775 2200 
Q 575 2200 362 2400 
Q 150 2600 150 3325 
Q 150 4050 362 4250 
Q 575 4450 775 4450 
Q 975 4450 1187 4250 
Q 1400 4050 1400 3325 
z
M 2625 4375 
L 700 75 
L 500 150 
L 2425 4450 
L 2625 4375 
z
M 2975 1200 
Q 2975 475 2762 275 
Q 2550 75 2350 75 
Q 2150 75 1937 275 
Q 1725 475 1725 1200 
Q 1725 1925 1937 2125 
Q 2150 2325 2350 2325 
Q 2550 2325 2762 2125 
Q 2975 1925 2975 1200 
z
M 1000 3325 
Q 1000 3775 950 3925 
Q 900 4075 775 4075 
Q 650 4075 600 3925 
Q 550 3775 550 3325 
Q 550 2875 600 2725 
Q 650 2575 775 2575 
Q 900 2575 950 2725 
Q 1000 2875 1000 3325 
z
M 2575 1200 
Q 2575 1650 2525 1800 
Q 2475 1950 2350 1950 
Q 2225 1950 2175 1800 
Q 2125 1650 2125 1200 
Q 2125 750 2175 600 
Q 2225 450 2350 450 
Q 2475 450 2525 600 
Q 2575 750 2575 1200 
z
" transform="scale(0.015625)"/>
     </defs>
     <use xlink:href="#SimHei-2b"/>
     <use xlink:href="#SimHei-31" transform="translate(50 0)"/>
     <use xlink:href="#SimHei-35" transform="translate(100 0)"/>
     <use xlink:href="#SimHei-2e" transform="translate(150 0)"/>
     <use xlink:href="#SimHei-31" transform="translate(200 0)"/>
     <use xlink:href="#SimHei-25" transform="translate(250 0)"/>
    </g>
   </g>
   <g id="text_18">
    <!-- 0.208 -->
    <g transform="translate(437.327435 163.445868) scale(0.11 -0.11)">
     <use xlink:href="#SimHei-30"/>
     <use xlink:href="#SimHei-2e" transform="translate(50 0)"/>
     <use xlink:href="#SimHei-32" transform="translate(100 0)"/>
     <use xlink:href="#SimHei-30" transform="translate(150 0)"/>
     <use xlink:href="#SimHei-38" transform="translate(200 0)"/>
    </g>
   </g>
   <g id="text_19">
    <g id="patch_14">
     <path d="M 433.077435 348.625634 
L 469.077435 348.625634 
Q 472.677435 348.625634 472.677435 345.025634 
L 472.677435 335.275634 
Q 472.677435 331.675634 469.077435 331.675634 
L 433.077435 331.675634 
Q 429.477435 331.675634 429.477435 335.275634 
L 429.477435 345.025634 
Q 429.477435 348.625634 433.077435 348.625634 
z
" style="fill: #ffffff; opacity: 0.7; stroke: #000000; stroke-linejoin: miter"/>
    </g>
    <!-- +30.8% -->
    <g transform="translate(433.077435 343.525634) scale(0.12 -0.12)">
     <use xlink:href="#SimHei-2b"/>
     <use xlink:href="#SimHei-33" transform="translate(50 0)"/>
     <use xlink:href="#SimHei-30" transform="translate(100 0)"/>
     <use xlink:href="#SimHei-2e" transform="translate(150 0)"/>
     <use xlink:href="#SimHei-38" transform="translate(200 0)"/>
     <use xlink:href="#SimHei-25" transform="translate(250 0)"/>
    </g>
   </g>
   <g id="text_20">
    <!-- 0.226 -->
    <g transform="translate(589.072565 134.492329) scale(0.11 -0.11)">
     <defs>
      <path id="SimHei-36" d="M 250 1612 
Q 275 1975 387 2225 
Q 500 2475 725 2850 
L 1750 4450 
L 2325 4450 
L 1275 2800 
Q 1950 2975 2350 2750 
Q 2750 2525 2887 2237 
Q 3025 1950 3037 1612 
Q 3050 1275 2937 950 
Q 2825 625 2537 362 
Q 2250 100 1737 75 
Q 1225 50 862 262 
Q 500 475 362 862 
Q 225 1250 250 1612 
z
M 1025 787 
Q 1250 550 1625 525 
Q 2000 500 2250 775 
Q 2500 1050 2500 1575 
Q 2500 2100 2187 2300 
Q 1875 2500 1487 2450 
Q 1100 2400 925 2075 
Q 750 1750 775 1387 
Q 800 1025 1025 787 
z
" transform="scale(0.015625)"/>
     </defs>
     <use xlink:href="#SimHei-30"/>
     <use xlink:href="#SimHei-2e" transform="translate(50 0)"/>
     <use xlink:href="#SimHei-32" transform="translate(100 0)"/>
     <use xlink:href="#SimHei-32" transform="translate(150 0)"/>
     <use xlink:href="#SimHei-36" transform="translate(200 0)"/>
    </g>
   </g>
   <g id="text_21">
    <g id="patch_15">
     <path d="M 584.822565 334.148864 
L 620.822565 334.148864 
Q 624.422565 334.148864 624.422565 330.548864 
L 624.422565 320.798864 
Q 624.422565 317.198864 620.822565 317.198864 
L 584.822565 317.198864 
Q 581.222565 317.198864 581.222565 320.798864 
L 581.222565 330.548864 
Q 581.222565 334.148864 584.822565 334.148864 
z
" style="fill: #ffffff; opacity: 0.7; stroke: #000000; stroke-linejoin: miter"/>
    </g>
    <!-- +42.1% -->
    <g transform="translate(584.822565 329.048864) scale(0.12 -0.12)">
     <defs>
      <path id="SimHei-34" d="M 2000 1100 
L 75 1100 
L 75 1525 
L 2100 4450 
L 2475 4450 
L 2475 1525 
L 3075 1525 
L 3075 1100 
L 2475 1100 
L 2475 150 
L 2000 150 
L 2000 1100 
z
M 2000 1525 
L 2000 3500 
L 600 1525 
L 2000 1525 
z
" transform="scale(0.015625)"/>
     </defs>
     <use xlink:href="#SimHei-2b"/>
     <use xlink:href="#SimHei-34" transform="translate(50 0)"/>
     <use xlink:href="#SimHei-32" transform="translate(100 0)"/>
     <use xlink:href="#SimHei-2e" transform="translate(150 0)"/>
     <use xlink:href="#SimHei-31" transform="translate(200 0)"/>
     <use xlink:href="#SimHei-25" transform="translate(250 0)"/>
    </g>
   </g>
   <g id="text_22">
    <!-- 0.242 -->
    <g transform="translate(740.817695 108.755849) scale(0.11 -0.11)">
     <use xlink:href="#SimHei-30"/>
     <use xlink:href="#SimHei-2e" transform="translate(50 0)"/>
     <use xlink:href="#SimHei-32" transform="translate(100 0)"/>
     <use xlink:href="#SimHei-34" transform="translate(150 0)"/>
     <use xlink:href="#SimHei-32" transform="translate(200 0)"/>
    </g>
   </g>
   <g id="text_23">
    <g id="patch_16">
     <path d="M 736.567695 321.280625 
L 772.567695 321.280625 
Q 776.167695 321.280625 776.167695 317.680625 
L 776.167695 307.930625 
Q 776.167695 304.330625 772.567695 304.330625 
L 736.567695 304.330625 
Q 732.967695 304.330625 732.967695 307.930625 
L 732.967695 317.680625 
Q 732.967695 321.280625 736.567695 321.280625 
z
" style="fill: #ffffff; opacity: 0.7; stroke: #000000; stroke-linejoin: miter"/>
    </g>
    <!-- +52.2% -->
    <g transform="translate(736.567695 316.180625) scale(0.12 -0.12)">
     <use xlink:href="#SimHei-2b"/>
     <use xlink:href="#SimHei-35" transform="translate(50 0)"/>
     <use xlink:href="#SimHei-32" transform="translate(100 0)"/>
     <use xlink:href="#SimHei-2e" transform="translate(150 0)"/>
     <use xlink:href="#SimHei-32" transform="translate(200 0)"/>
     <use xlink:href="#SimHei-25" transform="translate(250 0)"/>
    </g>
   </g>
   <g id="text_24">
    <!-- 0.267 -->
    <g transform="translate(892.562825 68.5426) scale(0.11 -0.11)">
     <defs>
      <path id="SimHei-37" d="M 850 150 
Q 1300 2050 2425 3925 
L 275 3925 
L 275 4375 
L 2950 4375 
L 2950 3950 
Q 1775 2050 1400 150 
L 850 150 
z
" transform="scale(0.015625)"/>
     </defs>
     <use xlink:href="#SimHei-30"/>
     <use xlink:href="#SimHei-2e" transform="translate(50 0)"/>
     <use xlink:href="#SimHei-32" transform="translate(100 0)"/>
     <use xlink:href="#SimHei-36" transform="translate(150 0)"/>
     <use xlink:href="#SimHei-37" transform="translate(200 0)"/>
    </g>
   </g>
   <g id="text_25">
    <g id="patch_17">
     <path d="M 888.312825 301.174 
L 924.312825 301.174 
Q 927.912825 301.174 927.912825 297.574 
L 927.912825 287.824 
Q 927.912825 284.224 924.312825 284.224 
L 888.312825 284.224 
Q 884.712825 284.224 884.712825 287.824 
L 884.712825 297.574 
Q 884.712825 301.174 888.312825 301.174 
z
" style="fill: #ffffff; opacity: 0.7; stroke: #000000; stroke-linejoin: miter"/>
    </g>
    <!-- +67.9% -->
    <g transform="translate(888.312825 296.074) scale(0.12 -0.12)">
     <use xlink:href="#SimHei-2b"/>
     <use xlink:href="#SimHei-36" transform="translate(50 0)"/>
     <use xlink:href="#SimHei-37" transform="translate(100 0)"/>
     <use xlink:href="#SimHei-2e" transform="translate(150 0)"/>
     <use xlink:href="#SimHei-39" transform="translate(200 0)"/>
     <use xlink:href="#SimHei-25" transform="translate(250 0)"/>
    </g>
   </g>
   <g id="text_26">
    <!-- 模型配置的消融实验结果 -->
    <g transform="translate(438.95 20.0125) scale(0.16 -0.16)">
     <defs>
      <path id="SimHei-7684" d="M 2100 4975 
Q 1975 4750 1750 3950 
L 2875 3950 
Q 2850 3525 2850 2875 
L 2850 675 
Q 2850 300 2875 -400 
L 2375 -400 
L 2375 100 
L 1100 100 
L 1100 -450 
L 600 -450 
Q 625 350 625 550 
L 625 2850 
Q 625 3525 600 3950 
L 1325 3950 
Q 1450 4525 1525 5150 
Q 1875 5025 2100 4975 
z
M 5825 3075 
Q 5800 1550 5700 175 
Q 5650 -275 5225 -425 
Q 4800 -575 4275 -625 
Q 4250 -350 4050 -50 
Q 4550 -75 4837 -25 
Q 5125 25 5200 200 
Q 5275 375 5312 1225 
Q 5350 2075 5375 3600 
L 3925 3600 
Q 3725 3125 3350 2475 
Q 3175 2650 2925 2750 
Q 3150 3050 3350 3475 
Q 3550 3900 3700 4400 
Q 3850 4900 3875 5175 
Q 4225 5025 4475 4950 
Q 4350 4750 4262 4512 
Q 4175 4275 4075 4050 
L 5850 4050 
Q 5825 3525 5825 3075 
z
M 2375 525 
L 2375 1850 
L 1100 1850 
L 1100 525 
L 2375 525 
z
M 2375 2275 
L 2375 3525 
L 1100 3525 
L 1100 2275 
L 2375 2275 
z
M 4350 2050 
Q 4500 1750 4700 1275 
Q 4525 1200 4225 1025 
Q 4050 1500 3900 1837 
Q 3750 2175 3600 2400 
Q 3775 2500 4050 2650 
L 4350 2050 
z
" transform="scale(0.015625)"/>
      <path id="SimHei-6d88" d="M 3850 3350 
Q 3850 4825 3825 5225 
L 4425 5225 
Q 4400 4825 4400 3350 
L 5875 3350 
Q 5850 2700 5850 2325 
L 5850 -100 
Q 5850 -275 5687 -412 
Q 5525 -550 4975 -650 
Q 4950 -400 4675 -75 
Q 5050 -100 5187 -75 
Q 5325 -50 5325 125 
L 5325 700 
L 2950 700 
L 2950 -600 
L 2425 -600 
Q 2450 100 2450 625 
L 2450 2350 
Q 2450 2950 2425 3350 
L 3850 3350 
z
M 5325 2250 
L 5325 2925 
L 2950 2925 
L 2950 2250 
L 5325 2250 
z
M 5325 1125 
L 5325 1800 
L 2950 1800 
L 2950 1125 
L 5325 1125 
z
M 1750 1500 
Q 1600 1275 1387 662 
Q 1175 50 1000 -600 
Q 700 -350 300 -250 
Q 550 25 800 550 
Q 1050 1075 1250 1875 
Q 1500 1650 1750 1500 
z
M 950 5025 
Q 1400 4700 1900 4200 
Q 1625 4000 1475 3800 
Q 1050 4300 550 4700 
Q 725 4775 950 5025 
z
M 525 3400 
Q 1125 3100 1650 2750 
Q 1475 2550 1300 2300 
Q 825 2675 250 3000 
Q 375 3150 525 3400 
z
M 6175 4675 
Q 6025 4575 5775 4262 
Q 5525 3950 5350 3650 
L 4900 3900 
Q 5250 4300 5600 5000 
Q 5900 4800 6175 4675 
z
M 2625 4975 
Q 2950 4575 3300 3950 
Q 3025 3825 2825 3675 
Q 2575 4200 2150 4700 
Q 2375 4800 2625 4975 
z
" transform="scale(0.015625)"/>
      <path id="SimHei-878d" d="M 5200 975 
Q 5400 1025 5650 1125 
Q 5775 775 5887 475 
Q 6000 175 6150 -350 
Q 5925 -425 5675 -500 
Q 5575 -175 5500 50 
Q 4825 -100 4362 -212 
Q 3900 -325 3400 -500 
Q 3325 -225 3200 0 
Q 3575 25 4350 175 
L 4350 1750 
L 3850 1750 
L 3850 1225 
L 3375 1225 
Q 3400 1975 3400 2675 
Q 3400 3400 3375 3925 
L 4350 3925 
Q 4350 4925 4325 5200 
L 4825 5200 
Q 4800 4875 4800 3925 
L 5775 3925 
Q 5750 3325 5750 2700 
Q 5750 2100 5775 1550 
L 5300 1550 
L 5300 1750 
L 4800 1750 
L 4800 250 
Q 5075 325 5400 400 
Q 5325 650 5200 975 
z
M 2025 -50 
Q 2425 -50 2475 -12 
Q 2525 25 2550 150 
L 2550 1975 
L 825 1975 
L 825 -500 
L 350 -500 
Q 375 100 375 475 
L 375 1400 
Q 375 1850 350 2350 
L 3000 2350 
Q 2975 1950 2975 1450 
L 2975 -25 
Q 2975 -325 2787 -387 
Q 2600 -450 2225 -525 
Q 2125 -225 2025 -50 
z
M 625 2725 
Q 650 3050 650 3350 
Q 650 3675 625 3975 
L 2850 3975 
Q 2825 3675 2825 3350 
Q 2825 3050 2850 2725 
L 625 2725 
z
M 3000 4450 
Q 2650 4475 2175 4475 
L 1200 4475 
Q 625 4475 250 4450 
L 250 4875 
Q 550 4850 1125 4850 
L 2175 4850 
Q 2700 4850 3000 4875 
L 3000 4450 
z
M 2325 1675 
Q 2175 1475 2000 1025 
L 2325 1025 
L 2325 675 
L 1850 675 
L 1850 -125 
L 1425 -125 
L 1425 675 
L 1025 675 
L 1025 1025 
L 1700 1025 
Q 1875 1500 1925 1825 
Q 2100 1700 2325 1675 
z
M 5300 2125 
L 5300 3550 
L 4800 3550 
L 4800 2125 
L 5300 2125 
z
M 4350 2125 
L 4350 3550 
L 3850 3550 
L 3850 2125 
L 4350 2125 
z
M 2350 3100 
L 2350 3600 
L 1100 3600 
L 1100 3100 
L 2350 3100 
z
M 1575 1275 
Q 1400 1225 1225 1150 
Q 1150 1425 1025 1675 
L 1325 1825 
Q 1425 1550 1575 1275 
z
" transform="scale(0.015625)"/>
      <path id="SimHei-5b9e" d="M 4125 3500 
Q 4050 3200 4000 2675 
Q 3950 2150 3850 1550 
L 5025 1550 
Q 5475 1550 5975 1575 
L 5975 1100 
Q 5450 1125 5000 1125 
L 3725 1125 
Q 3500 625 3050 250 
Q 2600 -125 2000 -337 
Q 1400 -550 925 -675 
Q 825 -375 500 -200 
Q 1225 -125 2050 212 
Q 2875 550 3200 1125 
L 1425 1125 
Q 975 1125 425 1100 
L 425 1575 
Q 1000 1550 1425 1550 
L 3375 1550 
Q 3450 1975 3487 2462 
Q 3525 2950 3500 3650 
Q 3800 3550 4125 3500 
z
M 3250 5250 
Q 3450 4850 3600 4375 
L 5775 4375 
Q 5750 4100 5750 3825 
Q 5750 3575 5775 3275 
L 5200 3275 
L 5200 3975 
L 1225 3975 
L 1225 3225 
L 675 3225 
Q 700 3525 700 3800 
Q 700 4100 675 4375 
L 2975 4375 
Q 2900 4675 2700 5075 
Q 2900 5150 3250 5250 
z
M 4000 825 
Q 4550 525 5050 262 
Q 5550 0 5925 -225 
Q 5750 -425 5550 -650 
Q 5100 -325 4575 -37 
Q 4050 250 3675 400 
Q 3875 650 4000 825 
z
M 1175 2750 
Q 1600 2550 2350 2050 
Q 2250 1900 2050 1650 
Q 1350 2175 925 2350 
Q 1075 2500 1175 2750 
z
M 3150 2825 
Q 2975 2625 2850 2425 
Q 2050 3000 1675 3125 
Q 1800 3300 1950 3525 
L 3150 2825 
z
" transform="scale(0.015625)"/>
      <path id="SimHei-9a8c" d="M 2300 4725 
Q 2250 4500 2225 4075 
L 2050 2125 
L 2525 2125 
Q 2500 1925 2475 1450 
L 2375 75 
Q 2375 -450 2075 -525 
Q 1775 -600 1250 -675 
Q 1175 -325 1050 -100 
Q 1575 -100 1737 -87 
Q 1900 -75 1950 150 
L 2025 1700 
L 550 1700 
Q 575 2175 587 2737 
Q 600 3300 600 3800 
L 1100 3800 
Q 1050 3525 1025 3087 
Q 1000 2650 1000 2125 
L 1625 2125 
L 1800 4325 
L 1125 4325 
Q 725 4325 350 4300 
L 350 4750 
Q 725 4725 1125 4725 
L 2300 4725 
z
M 4325 4875 
Q 4725 4125 5150 3775 
Q 5575 3425 6150 3225 
Q 5925 3025 5800 2725 
Q 5450 2925 5125 3200 
L 5125 2775 
Q 4800 2800 4200 2800 
Q 3600 2800 3225 2775 
L 3225 3175 
Q 3075 2975 2800 2650 
Q 2575 2875 2325 3000 
Q 2725 3275 2937 3550 
Q 3150 3825 3312 4125 
Q 3475 4425 3587 4675 
Q 3700 4925 3775 5225 
Q 4100 5150 4450 5075 
L 4325 4875 
z
M 5600 2150 
Q 5475 2000 5400 1737 
Q 5325 1475 5162 912 
Q 5000 350 4900 25 
L 5250 25 
Q 5425 25 5800 50 
L 5800 -400 
Q 5475 -375 5250 -375 
L 3325 -375 
Q 2875 -375 2675 -400 
L 2675 50 
Q 2975 25 3350 25 
L 4475 25 
Q 4675 575 4800 1150 
L 5050 2300 
Q 5250 2225 5600 2150 
z
M 5100 3225 
Q 4800 3450 4550 3775 
Q 4300 4100 4050 4600 
Q 3850 4200 3687 3912 
Q 3525 3625 3250 3225 
L 5100 3225 
z
M 3250 2175 
Q 3350 1825 3462 1375 
Q 3575 925 3675 550 
Q 3450 525 3250 425 
Q 3175 900 3087 1225 
Q 3000 1550 2850 2050 
Q 3050 2125 3250 2175 
z
M 1775 1125 
Q 1750 950 1725 700 
Q 1350 625 1112 575 
Q 875 525 375 375 
Q 300 650 200 925 
Q 550 950 925 1000 
Q 1300 1050 1775 1125 
z
M 4300 1650 
Q 4350 1325 4425 825 
L 4025 725 
Q 3925 1275 3875 1562 
Q 3825 1850 3750 2225 
Q 3975 2275 4200 2300 
L 4300 1650 
z
" transform="scale(0.015625)"/>
      <path id="SimHei-7ed3" d="M 5725 1925 
Q 5700 1600 5700 1200 
L 5700 350 
Q 5700 -125 5725 -475 
L 5225 -475 
L 5225 0 
L 3525 0 
L 3525 -525 
L 3025 -525 
Q 3050 125 3050 325 
L 3050 1250 
Q 3050 1550 3025 1925 
L 5725 1925 
z
M 1900 4850 
Q 1700 4600 1475 4200 
Q 1250 3800 925 3200 
Q 1475 3225 1725 3225 
Q 1950 3625 2100 4000 
Q 2350 3825 2650 3675 
Q 2525 3575 2212 3125 
Q 1900 2675 1225 1650 
Q 2050 1775 2525 1850 
Q 2450 1575 2450 1375 
Q 2225 1350 1650 1275 
Q 1075 1200 525 1050 
Q 425 1300 350 1550 
Q 650 1625 950 2012 
Q 1250 2400 1475 2825 
Q 1300 2825 962 2787 
Q 625 2750 375 2675 
Q 300 2925 225 3150 
Q 500 3375 812 3925 
Q 1125 4475 1300 5125 
Q 1600 4975 1900 4850 
z
M 4075 4175 
Q 4075 4600 4050 5175 
L 4575 5175 
Q 4550 4725 4550 4175 
L 5275 4175 
Q 5750 4175 6150 4200 
L 6150 3750 
Q 5750 3775 5300 3775 
L 4550 3775 
L 4550 2950 
L 5125 2950 
Q 5475 2950 5825 2975 
L 5825 2525 
Q 5525 2550 5100 2550 
L 3650 2550 
Q 3225 2550 2900 2525 
L 2900 2975 
Q 3225 2950 3600 2950 
L 4075 2950 
L 4075 3775 
L 3525 3775 
Q 3075 3775 2675 3750 
L 2675 4200 
Q 3000 4175 3475 4175 
L 4075 4175 
z
M 5225 400 
L 5225 1525 
L 3525 1525 
L 3525 400 
L 5225 400 
z
M 2575 650 
Q 2500 425 2525 175 
Q 2050 100 1450 0 
Q 850 -100 425 -225 
Q 325 100 225 350 
Q 750 375 1175 437 
Q 1600 500 2575 650 
z
" transform="scale(0.015625)"/>
      <path id="SimHei-679c" d="M 2975 -525 
Q 3000 -75 3000 575 
L 3000 1600 
L 2900 1600 
Q 2725 1275 2500 1000 
Q 2275 725 1987 512 
Q 1700 300 1362 100 
Q 1025 -100 675 -250 
Q 575 25 400 275 
Q 700 350 975 487 
Q 1250 625 1525 787 
Q 1800 950 2000 1150 
Q 2200 1350 2375 1600 
L 1375 1600 
Q 1000 1600 450 1550 
L 450 2050 
Q 950 2000 1375 2000 
L 3000 2000 
L 3000 2450 
L 1150 2450 
Q 1175 3050 1175 3775 
Q 1175 4500 1150 5000 
L 5325 5000 
Q 5300 4500 5300 3775 
Q 5300 3050 5325 2450 
L 3475 2450 
L 3475 2000 
L 5050 2000 
Q 5550 2000 5925 2025 
L 5925 1550 
Q 5500 1600 5100 1600 
L 4125 1600 
Q 4450 1075 4925 800 
Q 5400 525 6050 375 
Q 5875 150 5775 -175 
Q 4925 150 4425 550 
Q 3925 950 3675 1600 
L 3475 1600 
L 3475 550 
Q 3475 0 3500 -525 
L 2975 -525 
z
M 4825 3875 
L 4825 4625 
L 3475 4625 
L 3475 3875 
L 4825 3875 
z
M 3000 3875 
L 3000 4625 
L 1675 4625 
L 1675 3875 
L 3000 3875 
z
M 4825 2825 
L 4825 3500 
L 3475 3500 
L 3475 2825 
L 4825 2825 
z
M 3000 2825 
L 3000 3500 
L 1675 3500 
L 1675 2825 
L 3000 2825 
z
" transform="scale(0.015625)"/>
     </defs>
     <use xlink:href="#SimHei-6a21"/>
     <use xlink:href="#SimHei-578b" transform="translate(100 0)"/>
     <use xlink:href="#SimHei-914d" transform="translate(200 0)"/>
     <use xlink:href="#SimHei-7f6e" transform="translate(300 0)"/>
     <use xlink:href="#SimHei-7684" transform="translate(400 0)"/>
     <use xlink:href="#SimHei-6d88" transform="translate(500 0)"/>
     <use xlink:href="#SimHei-878d" transform="translate(600 0)"/>
     <use xlink:href="#SimHei-5b9e" transform="translate(700 0)"/>
     <use xlink:href="#SimHei-9a8c" transform="translate(800 0)"/>
     <use xlink:href="#SimHei-7ed3" transform="translate(900 0)"/>
     <use xlink:href="#SimHei-679c" transform="translate(1000 0)"/>
    </g>
   </g>
  </g>
 </g>
 <defs>
  <clipPath id="p7f1d504d21">
   <rect x="59.575" y="35.0125" width="934.75" height="472.42525"/>
  </clipPath>
 </defs>
</svg>
